<svg xmlns="http://www.w3.org/2000/svg" xmlns:xlink="http://www.w3.org/1999/xlink" width="940" zoomAndPan="magnify" viewBox="0 0 705 591.000005" height="788" preserveAspectRatio="xMidYMid meet" version="1.2"><defs><clipPath id="41ca373a89"><path d="M 0.59375 0 L 704.402344 0 L 704.402344 590 L 0.59375 590 Z M 0.59375 0 "/></clipPath><clipPath id="2ae46e838b"><path d="M 69 220.308594 L 132 220.308594 L 132 370.058594 L 69 370.058594 Z M 69 220.308594 "/></clipPath><clipPath id="b2684acb4d"><path d="M 175 220.308594 L 238 220.308594 L 238 370.058594 L 175 370.058594 Z M 175 220.308594 "/></clipPath><clipPath id="8cec947133"><path d="M 126 275 L 194 275 L 194 370.058594 L 126 370.058594 Z M 126 275 "/></clipPath></defs><g id="a3f90c5fa5"><g clip-rule="nonzero" clip-path="url(#41ca373a89)"><path style=" stroke:none;fill-rule:nonzero;fill:#ffffff;fill-opacity:1;" d="M 0.59375 0 L 704.40625 0 L 704.40625 590 L 0.59375 590 Z M 0.59375 0 "/><path style=" stroke:none;fill-rule:nonzero;fill:#ffffff;fill-opacity:1;" d="M 0.59375 0 L 704.40625 0 L 704.40625 590 L 0.59375 590 Z M 0.59375 0 "/></g><g clip-rule="nonzero" clip-path="url(#2ae46e838b)"><path style=" stroke:none;fill-rule:nonzero;fill:#fa0c00;fill-opacity:1;" d="M 131.464844 220.308594 L 69.039062 220.308594 L 69.039062 370.054688 Z M 131.464844 220.308594 "/></g><g clip-rule="nonzero" clip-path="url(#b2684acb4d)"><path style=" stroke:none;fill-rule:nonzero;fill:#fa0c00;fill-opacity:1;" d="M 175.386719 220.308594 L 237.734375 220.308594 L 237.734375 370.054688 Z M 175.386719 220.308594 "/></g><g clip-rule="nonzero" clip-path="url(#8cec947133)"><path style=" stroke:none;fill-rule:nonzero;fill:#fa0c00;fill-opacity:1;" d="M 153.425781 275.5 L 193.160156 370.054688 L 167.089844 370.054688 L 155.214844 339.953125 L 126.136719 339.953125 Z M 153.425781 275.5 "/></g><path style=" stroke:none;fill-rule:nonzero;fill:#fa0c00;fill-opacity:1;" d="M 339.578125 315.539062 L 346.941406 336.710938 C 347.183594 337.238281 347.550781 337.484375 348.199219 337.484375 L 362.351562 337.484375 C 363.125 337.484375 363.25 337.117188 363.125 336.34375 L 333.886719 254.882812 C 333.761719 254.230469 333.640625 254.105469 332.992188 254.105469 L 315.421875 254.105469 C 314.933594 254.105469 314.648438 254.472656 314.648438 255.003906 C 314.40625 259.289062 314.039062 260.59375 313.511719 261.855469 L 287.441406 336.21875 C 287.320312 337.117188 287.605469 337.484375 288.335938 337.484375 L 300.984375 337.484375 C 301.757812 337.484375 302.121094 337.238281 302.40625 336.464844 L 309.363281 315.539062 Z M 313.386719 301.710938 C 317.210938 290.125 322.253906 275.277344 324.289062 266.792969 L 324.410156 266.792969 C 326.929688 275.683594 332.867188 293.308594 335.550781 301.710938 Z M 313.386719 301.710938 "/><path style=" stroke:none;fill-rule:nonzero;fill:#fa0c00;fill-opacity:1;" d="M 400.71875 338.75 C 408.324219 338.75 416.414062 337.363281 424.632812 333.8125 C 425.28125 333.566406 425.402344 333.28125 425.402344 332.671875 C 425.160156 330.386719 424.875 327.082031 424.875 324.554688 L 424.875 247.867188 C 424.875 247.375 424.875 247.132812 424.265625 247.132812 L 410.476562 247.132812 C 409.949219 247.132812 409.707031 247.375 409.707031 248.027344 L 409.707031 274.011719 C 407.550781 273.769531 406.046875 273.644531 404.253906 273.644531 C 382.011719 273.644531 368.34375 288.371094 368.34375 306.769531 C 368.34375 328.101562 382.375 338.75 400.71875 338.75 Z M 409.707031 324.554688 C 407.429688 325.289062 404.90625 325.574219 402.34375 325.574219 C 392.257812 325.574219 384.003906 319.863281 384.003906 305.992188 C 384.003906 293.714844 392.503906 286.453125 403.769531 286.453125 C 406.046875 286.453125 408.039062 286.699219 409.707031 287.351562 Z M 409.707031 324.554688 "/><path style=" stroke:none;fill-rule:nonzero;fill:#fa0c00;fill-opacity:1;" d="M 469.386719 273.644531 C 450.394531 273.644531 438.640625 288.25 438.640625 306.277344 C 438.640625 322.390625 447.996094 338.75 469.101562 338.75 C 486.957031 338.75 499.480469 325.574219 499.480469 305.871094 C 499.480469 288.492188 488.867188 273.644531 469.386719 273.644531 Z M 468.613281 286.453125 C 479.351562 286.453125 483.90625 295.714844 483.90625 306.277344 C 483.90625 319.332031 477.195312 325.816406 469.386719 325.816406 C 459.746094 325.816406 454.054688 317.699219 454.054688 305.992188 C 454.054688 293.960938 460.113281 286.453125 468.613281 286.453125 Z M 468.613281 286.453125 "/><path style=" stroke:none;fill-rule:nonzero;fill:#fa0c00;fill-opacity:1;" d="M 513.734375 247.132812 C 513.207031 247.132812 512.839844 247.375 512.839844 248.027344 L 512.839844 334.832031 C 512.839844 335.199219 513.207031 335.851562 513.734375 335.976562 C 519.792969 337.851562 526.140625 338.75 532.6875 338.75 C 551.433594 338.75 569.65625 327.082031 569.65625 303.585938 C 569.65625 286.578125 558.023438 273.644531 539.804688 273.644531 C 535.613281 273.644531 531.710938 274.296875 528.292969 275.441406 L 528.132812 248.152344 C 528.132812 247.253906 527.886719 247.132812 526.992188 247.132812 Z M 554.078125 305.136719 C 554.078125 319.210938 544.480469 325.816406 534.109375 325.816406 C 531.953125 325.816406 530.042969 325.695312 528.292969 325.164062 L 528.292969 288.125 C 530.289062 287.351562 532.6875 286.699219 537.121094 286.699219 C 547.125 286.699219 554.078125 293.0625 554.078125 305.136719 Z M 554.078125 305.136719 "/><path style=" stroke:none;fill-rule:nonzero;fill:#fa0c00;fill-opacity:1;" d="M 621.105469 309.707031 C 627.289062 309.707031 632.371094 309.582031 634.121094 309.175781 C 634.773438 309.050781 635.015625 308.808594 635.136719 308.277344 C 635.503906 306.890625 635.667969 303.996094 635.667969 300.445312 C 635.667969 288.371094 628.425781 273.644531 609.71875 273.644531 C 590.605469 273.644531 579.992188 289.269531 579.992188 306.890625 C 579.992188 322.515625 588.207031 338.75 611.222656 338.75 C 619.847656 338.75 625.417969 337.363281 630.21875 335.078125 C 630.703125 334.832031 630.949219 334.425781 630.949219 333.691406 L 630.949219 323.125 C 630.949219 322.515625 630.582031 322.390625 630.21875 322.636719 C 625.417969 324.675781 620.210938 325.695312 614.519531 325.695312 C 601.625 325.695312 595.769531 318.558594 595.40625 309.707031 Z M 595.402344 298.773438 C 596.421875 292.574219 600.324219 285.84375 609.070312 285.84375 C 618.707031 285.84375 621.230469 293.960938 621.230469 297.632812 C 621.230469 297.753906 621.230469 298.285156 621.230469 298.652344 C 620.699219 298.773438 619.074219 298.773438 614.273438 298.773438 Z M 595.402344 298.773438 "/></g></svg>