<svg xmlns="http://www.w3.org/2000/svg" xmlns:xlink="http://www.w3.org/1999/xlink" width="940" zoomAndPan="magnify" viewBox="0 0 705 591.000005" height="788" preserveAspectRatio="xMidYMid meet" version="1.2"><defs><clipPath id="f6dbdf47fa"><path d="M 0.59375 0 L 704.402344 0 L 704.402344 590 L 0.59375 590 Z M 0.59375 0 "/></clipPath><clipPath id="fde291550d"><path d="M 183.378906 87 L 521.804688 87 L 521.804688 503 L 183.378906 503 Z M 183.378906 87 "/></clipPath></defs><g id="e22403dae1"><g clip-rule="nonzero" clip-path="url(#f6dbdf47fa)"><path style=" stroke:none;fill-rule:nonzero;fill:#ffffff;fill-opacity:1;" d="M 0.59375 0 L 704.40625 0 L 704.40625 590 L 0.59375 590 Z M 0.59375 0 "/><path style=" stroke:none;fill-rule:nonzero;fill:#ffffff;fill-opacity:1;" d="M 0.59375 0 L 704.40625 0 L 704.40625 590 L 0.59375 590 Z M 0.59375 0 "/></g><g clip-rule="nonzero" clip-path="url(#fde291550d)"><path style=" stroke:none;fill-rule:nonzero;fill:#000000;fill-opacity:1;" d="M 511.039062 228.960938 C 508.625 230.832031 466.050781 254.820312 466.050781 308.160156 C 466.050781 369.855469 520.226562 391.679688 521.847656 392.222656 C 521.597656 393.550781 513.242188 422.113281 493.285156 451.214844 C 475.488281 476.824219 456.90625 502.390625 428.632812 502.390625 C 400.363281 502.390625 393.085938 485.96875 360.449219 485.96875 C 328.644531 485.96875 317.335938 502.933594 291.476562 502.933594 C 265.613281 502.933594 247.570312 479.234375 226.824219 450.132812 C 202.792969 415.960938 183.378906 362.871094 183.378906 312.484375 C 183.378906 231.664062 235.929688 188.800781 287.648438 188.800781 C 315.132812 188.800781 338.039062 206.84375 355.292969 206.84375 C 371.714844 206.84375 397.328125 187.71875 428.59375 187.71875 C 440.441406 187.71875 483.015625 188.800781 511.039062 228.960938 Z M 413.75 153.503906 C 426.679688 138.164062 435.828125 116.878906 435.828125 95.59375 C 435.828125 92.640625 435.578125 89.648438 435.035156 87.234375 C 414 88.027344 388.96875 101.246094 373.878906 118.75 C 362.03125 132.21875 350.96875 153.503906 350.96875 175.082031 C 350.96875 178.324219 351.511719 181.566406 351.761719 182.605469 C 353.089844 182.855469 355.253906 183.148438 357.414062 183.148438 C 376.289062 183.148438 400.03125 170.507812 413.75 153.503906 Z M 413.75 153.503906 "/></g></g></svg>