<svg xmlns="http://www.w3.org/2000/svg" xmlns:xlink="http://www.w3.org/1999/xlink" width="940" zoomAndPan="magnify" viewBox="0 0 705 591.000005" height="788" preserveAspectRatio="xMidYMid meet" version="1.2"><defs><clipPath id="296aa63dc4"><path d="M 0.59375 0 L 704.402344 0 L 704.402344 590 L 0.59375 590 Z M 0.59375 0 "/></clipPath></defs><g id="a4474649bd"><g clip-rule="nonzero" clip-path="url(#296aa63dc4)"><path style=" stroke:none;fill-rule:nonzero;fill:#ffffff;fill-opacity:1;" d="M 0.59375 0 L 704.40625 0 L 704.40625 590 L 0.59375 590 Z M 0.59375 0 "/><path style=" stroke:none;fill-rule:nonzero;fill:#ffffff;fill-opacity:1;" d="M 0.59375 0 L 704.40625 0 L 704.40625 590 L 0.59375 590 Z M 0.59375 0 "/></g><path style=" stroke:none;fill-rule:nonzero;fill:#000000;fill-opacity:1;" d="M 70.789062 321.839844 L 119.90625 291.285156 L 145.398438 291.285156 C 146.183594 291.285156 146.902344 291.90625 146.902344 292.792969 C 146.902344 293.511719 146.574219 293.804688 146.183594 294.035156 L 122.066406 308.492188 C 120.492188 309.441406 119.9375 311.308594 119.9375 312.714844 L 119.90625 321.839844 L 150.570312 321.839844 L 150.570312 268.875 C 150.570312 267.863281 149.78125 266.980469 148.605469 266.980469 L 119.351562 266.980469 L 70.363281 297.402344 L 70.363281 321.839844 Z M 70.789062 321.839844 "/><path style=" stroke:none;fill-rule:nonzero;fill:#000000;fill-opacity:1;" d="M 473.550781 321.84375 L 517.726562 321.84375 L 517.726562 309.964844 L 487.554688 309.964844 L 487.554688 300.019531 L 511.835938 300.019531 L 511.835938 288.113281 L 487.554688 288.113281 L 487.554688 278.855469 L 517.726562 278.855469 L 517.726562 266.980469 L 473.550781 266.980469 Z M 473.550781 321.84375 "/><path style=" stroke:none;fill-rule:nonzero;fill:#000000;fill-opacity:1;" d="M 195.957031 266.980469 L 174.914062 321.84375 L 189.378906 321.84375 L 193.042969 311.570312 L 216.539062 311.570312 L 220.136719 321.84375 L 235.09375 321.84375 L 213.789062 266.980469 Z M 197.199219 299.890625 L 204.890625 278.398438 L 212.449219 299.890625 Z M 197.199219 299.890625 "/><path style=" stroke:none;fill-rule:nonzero;fill:#000000;fill-opacity:1;" d="M 295.105469 278.855469 L 312.8125 278.855469 L 312.8125 321.84375 L 326.785156 321.84375 L 326.785156 278.855469 L 344.421875 278.855469 L 344.421875 266.980469 L 295.105469 266.980469 Z M 295.105469 278.855469 "/><path style=" stroke:none;fill-rule:nonzero;fill:#000000;fill-opacity:1;" d="M 274.753906 300.707031 C 274.753906 307.839844 270.367188 310.71875 262.875 310.71875 C 255.609375 310.71875 250.867188 307.710938 250.867188 300.707031 L 250.867188 266.78125 L 236.859375 266.78125 L 236.859375 302.3125 C 236.859375 318.144531 250.996094 323.085938 262.84375 323.085938 C 274.625 323.085938 288.695312 318.144531 288.695312 302.3125 L 288.695312 266.78125 L 274.6875 266.78125 L 274.6875 300.707031 Z M 274.753906 300.707031 "/><path style=" stroke:none;fill-rule:nonzero;fill:#000000;fill-opacity:1;" d="M 633.207031 266.980469 L 616.550781 266.980469 L 596.589844 289.257812 L 596.589844 266.980469 L 582.585938 266.980469 L 582.648438 321.84375 L 596.589844 321.84375 L 596.589844 301.003906 L 615.503906 321.84375 L 633.207031 321.84375 L 607.683594 294.753906 Z M 633.207031 266.980469 "/><path style=" stroke:none;fill-rule:nonzero;fill:#000000;fill-opacity:1;" d="M 440.628906 266.980469 L 414.972656 266.980469 L 414.972656 321.84375 L 440.628906 321.84375 C 460.296875 321.84375 465.730469 314.511719 465.730469 294 C 465.730469 274.734375 460.523438 266.980469 440.628906 266.980469 Z M 440.074219 309.964844 L 428.945312 309.964844 L 428.945312 278.855469 L 440.074219 278.855469 C 448.84375 278.855469 451.460938 281.242188 451.460938 294 C 451.460938 305.648438 448.515625 309.964844 440.074219 309.964844 Z M 440.074219 309.964844 "/><path style=" stroke:none;fill-rule:nonzero;fill:#000000;fill-opacity:1;" d="M 560.039062 289.554688 L 547.277344 288.113281 C 539.8125 287.296875 537.949219 285.429688 537.949219 282.910156 C 537.949219 280.097656 541.777344 277.578125 549.273438 277.578125 C 556.472656 277.578125 560.234375 280.261719 560.921875 284.285156 L 574.632812 284.285156 C 573.945312 272.671875 564.226562 265.476562 550.023438 265.476562 C 533.140625 265.476562 524.664062 272.179688 524.664062 284.058594 C 524.664062 293.707031 530.292969 298.253906 541.941406 299.496094 L 554.902344 300.871094 C 559.839844 301.429688 562.101562 303.324219 562.101562 305.8125 C 562.101562 308.625 558.796875 311.144531 550.84375 311.144531 C 541.648438 311.144531 537.949219 308.820312 537.328125 304.140625 L 523.878906 304.140625 C 524.5 316.769531 532.714844 323.214844 550.351562 323.214844 C 566.453125 323.214844 575.449219 316.148438 575.449219 305.515625 C 575.449219 296.257812 570.117188 290.699219 560.039062 289.554688 Z M 560.039062 289.554688 "/><path style=" stroke:none;fill-rule:nonzero;fill:#000000;fill-opacity:1;" d="M 376.980469 265.476562 C 357.019531 265.476562 346.679688 277.742188 346.679688 294.261719 C 346.679688 310.851562 357.019531 323.183594 376.980469 323.183594 C 397.007812 323.183594 407.351562 310.851562 407.351562 294.261719 C 407.382812 277.742188 397.007812 265.476562 376.980469 265.476562 Z M 376.980469 310.851562 C 366.640625 310.851562 360.949219 304.535156 360.949219 294.261719 C 360.949219 284.1875 366.640625 277.808594 376.980469 277.808594 C 387.421875 277.808594 393.015625 284.1875 393.015625 294.261719 C 393.050781 304.570312 387.421875 310.851562 376.980469 310.851562 Z M 376.980469 310.851562 "/></g></svg>