<svg xmlns="http://www.w3.org/2000/svg" xmlns:xlink="http://www.w3.org/1999/xlink" width="940" zoomAndPan="magnify" viewBox="0 0 705 591.000005" height="788" preserveAspectRatio="xMidYMid meet" version="1.2"><defs><clipPath id="9a404480cb"><path d="M 0.59375 0 L 704.402344 0 L 704.402344 590 L 0.59375 590 Z M 0.59375 0 "/></clipPath><clipPath id="4dc4b2c652"><path d="M 380 343 L 458 343 L 458 448.957031 L 380 448.957031 Z M 380 343 "/></clipPath><clipPath id="de78a490cb"><path d="M 113 343 L 191 343 L 191 448.957031 L 113 448.957031 Z M 113 343 "/></clipPath><clipPath id="de20d7ff37"><path d="M 484 343 L 592 343 L 592 448.957031 L 484 448.957031 Z M 484 343 "/></clipPath><clipPath id="e9cb7e4d1b"><path d="M 285 343 L 356 343 L 356 448.957031 L 285 448.957031 Z M 285 343 "/></clipPath><clipPath id="7314bf65b9"><path d="M 200 141.226562 L 226 141.226562 L 226 302 L 200 302 Z M 200 141.226562 "/></clipPath><clipPath id="9abed88c89"><path d="M 478 141.226562 L 505 141.226562 L 505 302 L 478 302 Z M 478 141.226562 "/></clipPath></defs><g id="358df849b6"><g clip-rule="nonzero" clip-path="url(#9a404480cb)"><path style=" stroke:none;fill-rule:nonzero;fill:#ffffff;fill-opacity:1;" d="M 0.59375 0 L 704.40625 0 L 704.40625 590 L 0.59375 590 Z M 0.59375 0 "/><path style=" stroke:none;fill-rule:nonzero;fill:#ffffff;fill-opacity:1;" d="M 0.59375 0 L 704.40625 0 L 704.40625 590 L 0.59375 590 Z M 0.59375 0 "/></g><path style=" stroke:none;fill-rule:nonzero;fill:#c4122e;fill-opacity:1;" d="M 251.40625 345.664062 L 225.867188 345.664062 L 225.867188 446.980469 L 251.40625 446.980469 Z M 251.40625 345.664062 "/><g clip-rule="nonzero" clip-path="url(#4dc4b2c652)"><path style=" stroke:none;fill-rule:nonzero;fill:#c4122e;fill-opacity:1;" d="M 457.320312 374.695312 C 456.292969 374.160156 448.085938 369.285156 435.871094 369.285156 C 419.328125 369.285156 407.878906 380.792969 407.878906 396.308594 C 407.878906 411.363281 418.851562 423.355469 435.871094 423.355469 C 447.875 423.355469 456.222656 418.585938 457.320312 417.980469 L 457.320312 445.171875 C 454.152344 446.070312 445.4375 448.777344 434.03125 448.777344 C 405.324219 448.777344 380.144531 428.953125 380.144531 396.308594 C 380.144531 366.054688 402.953125 343.863281 434.03125 343.863281 C 446.054688 343.863281 454.917969 346.789062 457.320312 347.5 Z M 457.320312 374.695312 "/></g><g clip-rule="nonzero" clip-path="url(#de78a490cb)"><path style=" stroke:none;fill-rule:nonzero;fill:#c4122e;fill-opacity:1;" d="M 190.757812 374.695312 C 189.730469 374.160156 181.519531 369.285156 169.304688 369.285156 C 152.761719 369.285156 141.316406 380.792969 141.316406 396.308594 C 141.316406 411.363281 152.285156 423.355469 169.304688 423.355469 C 181.308594 423.355469 189.65625 418.585938 190.757812 417.980469 L 190.757812 445.171875 C 187.585938 446.070312 178.875 448.777344 167.46875 448.777344 C 138.761719 448.777344 113.578125 428.953125 113.578125 396.308594 C 113.578125 366.054688 136.390625 343.863281 167.46875 343.863281 C 179.488281 343.863281 188.355469 346.789062 190.757812 347.5 Z M 190.757812 374.695312 "/></g><g clip-rule="nonzero" clip-path="url(#de20d7ff37)"><path style=" stroke:none;fill-rule:nonzero;fill:#c4122e;fill-opacity:1;" d="M 537.660156 369.664062 C 522.507812 369.664062 511.257812 381.601562 511.257812 396.308594 C 511.257812 411.046875 522.507812 422.976562 537.660156 422.976562 C 552.796875 422.976562 564.078125 411.046875 564.078125 396.308594 C 564.078125 381.601562 552.796875 369.664062 537.660156 369.664062 M 591.136719 396.308594 C 591.136719 425.289062 568.789062 448.777344 537.660156 448.777344 C 506.53125 448.777344 484.214844 425.289062 484.214844 396.308594 C 484.214844 367.375 506.53125 343.863281 537.660156 343.863281 C 568.789062 343.863281 591.136719 367.375 591.136719 396.308594 "/></g><g clip-rule="nonzero" clip-path="url(#e9cb7e4d1b)"><path style=" stroke:none;fill-rule:nonzero;fill:#c4122e;fill-opacity:1;" d="M 348.253906 368.691406 C 347.871094 368.570312 337.121094 365.597656 328.289062 365.597656 C 318.054688 365.597656 312.488281 369.03125 312.488281 373.898438 C 312.488281 380.070312 319.996094 382.222656 324.195312 383.550781 L 331.242188 385.796875 C 347.816406 391.074219 355.371094 402.4375 355.371094 414.777344 C 355.371094 440.230469 333.011719 448.78125 313.46875 448.78125 C 299.886719 448.78125 287.164062 446.28125 285.910156 446.011719 L 285.910156 422.699219 C 288.15625 423.265625 298.867188 426.464844 310.023438 426.464844 C 322.730469 426.464844 328.570312 422.746094 328.570312 417.003906 C 328.570312 411.871094 323.515625 408.90625 317.183594 406.914062 C 315.636719 406.398438 313.316406 405.667969 311.730469 405.148438 C 297.507812 400.648438 285.648438 392.28125 285.648438 375.511719 C 285.648438 356.5625 299.824219 343.839844 323.363281 343.839844 C 335.796875 343.839844 347.492188 346.859375 348.253906 347.0625 Z M 348.253906 368.691406 "/></g><path style=" stroke:none;fill-rule:nonzero;fill:#15495d;fill-opacity:1;" d="M 86.5 236.78125 C 86.5 229.800781 80.804688 224.140625 73.824219 224.140625 C 66.84375 224.140625 61.140625 229.800781 61.140625 236.78125 L 61.140625 263.375 C 61.140625 270.394531 66.84375 276.066406 73.824219 276.066406 C 80.804688 276.066406 86.5 270.394531 86.5 263.375 Z M 86.5 236.78125 "/><path style=" stroke:none;fill-rule:nonzero;fill:#15495d;fill-opacity:1;" d="M 156.140625 201.875 C 156.140625 194.894531 150.445312 189.214844 143.464844 189.214844 C 136.476562 189.214844 130.78125 194.894531 130.78125 201.875 L 130.78125 263.378906 C 130.78125 270.398438 136.476562 276.0625 143.464844 276.0625 C 150.445312 276.0625 156.140625 270.398438 156.140625 263.378906 Z M 156.140625 201.875 "/><g clip-rule="nonzero" clip-path="url(#7314bf65b9)"><path style=" stroke:none;fill-rule:nonzero;fill:#15495d;fill-opacity:1;" d="M 225.785156 154.113281 C 225.785156 147.132812 220.089844 141.464844 213.109375 141.464844 C 206.121094 141.464844 200.425781 147.132812 200.425781 154.113281 L 200.425781 288.648438 C 200.425781 295.671875 206.121094 301.339844 213.109375 301.339844 C 220.089844 301.339844 225.785156 295.671875 225.785156 288.648438 Z M 225.785156 154.113281 "/></g><path style=" stroke:none;fill-rule:nonzero;fill:#15495d;fill-opacity:1;" d="M 295.425781 201.875 C 295.425781 194.894531 289.734375 189.214844 282.75 189.214844 C 275.761719 189.214844 270.066406 194.894531 270.066406 201.875 L 270.066406 263.378906 C 270.066406 270.398438 275.761719 276.0625 282.75 276.0625 C 289.734375 276.0625 295.425781 270.398438 295.425781 263.378906 Z M 295.425781 201.875 "/><path style=" stroke:none;fill-rule:nonzero;fill:#15495d;fill-opacity:1;" d="M 364.992188 236.78125 C 364.992188 229.800781 359.335938 224.140625 352.386719 224.140625 C 345.40625 224.140625 339.710938 229.800781 339.710938 236.78125 L 339.710938 263.375 C 339.710938 270.394531 345.40625 276.066406 352.386719 276.066406 C 359.335938 276.066406 364.992188 270.394531 364.992188 263.375 Z M 364.992188 236.78125 "/><path style=" stroke:none;fill-rule:nonzero;fill:#15495d;fill-opacity:1;" d="M 365.023438 236.78125 C 365.023438 229.800781 359.328125 224.140625 352.347656 224.140625 C 345.367188 224.140625 339.664062 229.800781 339.664062 236.78125 L 339.664062 263.375 C 339.664062 270.394531 345.367188 276.066406 352.347656 276.066406 C 359.328125 276.066406 365.023438 270.394531 365.023438 263.375 Z M 365.023438 236.78125 "/><path style=" stroke:none;fill-rule:nonzero;fill:#15495d;fill-opacity:1;" d="M 434.664062 201.875 C 434.664062 194.894531 428.972656 189.214844 421.988281 189.214844 C 415 189.214844 409.304688 194.894531 409.304688 201.875 L 409.304688 263.378906 C 409.304688 270.398438 415 276.0625 421.988281 276.0625 C 428.972656 276.0625 434.664062 270.398438 434.664062 263.378906 Z M 434.664062 201.875 "/><g clip-rule="nonzero" clip-path="url(#9abed88c89)"><path style=" stroke:none;fill-rule:nonzero;fill:#15495d;fill-opacity:1;" d="M 504.308594 154.113281 C 504.308594 147.132812 498.613281 141.464844 491.632812 141.464844 C 484.644531 141.464844 478.949219 147.132812 478.949219 154.113281 L 478.949219 288.648438 C 478.949219 295.671875 484.644531 301.339844 491.632812 301.339844 C 498.613281 301.339844 504.308594 295.671875 504.308594 288.648438 Z M 504.308594 154.113281 "/></g><path style=" stroke:none;fill-rule:nonzero;fill:#15495d;fill-opacity:1;" d="M 573.953125 201.875 C 573.953125 194.894531 568.257812 189.214844 561.277344 189.214844 C 554.285156 189.214844 548.59375 194.894531 548.59375 201.875 L 548.59375 263.378906 C 548.59375 270.398438 554.285156 276.0625 561.277344 276.0625 C 568.257812 276.0625 573.953125 270.398438 573.953125 263.378906 Z M 573.953125 201.875 "/><path style=" stroke:none;fill-rule:nonzero;fill:#15495d;fill-opacity:1;" d="M 643.515625 236.78125 C 643.515625 229.800781 637.859375 224.140625 630.914062 224.140625 C 623.929688 224.140625 618.238281 229.800781 618.238281 236.78125 L 618.238281 263.375 C 618.238281 270.394531 623.929688 276.066406 630.914062 276.066406 C 637.859375 276.066406 643.515625 270.394531 643.515625 263.375 Z M 643.515625 236.78125 "/><path style=" stroke:none;fill-rule:nonzero;fill:#c4122e;fill-opacity:1;" d="M 628.949219 433.636719 L 628.949219 435.222656 L 624.433594 435.222656 L 624.433594 446.972656 L 622.582031 446.972656 L 622.582031 435.222656 L 618.042969 435.222656 L 618.042969 433.636719 Z M 628.949219 433.636719 "/><path style=" stroke:none;fill-rule:nonzero;fill:#c4122e;fill-opacity:1;" d="M 629.894531 433.636719 L 632.800781 433.636719 L 636.789062 444.574219 L 636.851562 444.574219 L 640.710938 433.636719 L 643.558594 433.636719 L 643.558594 446.972656 L 641.65625 446.972656 L 641.65625 436.039062 L 641.59375 436.039062 L 637.546875 446.972656 L 635.792969 446.972656 L 631.84375 436.039062 L 631.753906 436.039062 L 631.753906 446.972656 L 629.894531 446.972656 Z M 629.894531 433.636719 "/></g></svg>