<svg xmlns="http://www.w3.org/2000/svg" xmlns:xlink="http://www.w3.org/1999/xlink" width="940" zoomAndPan="magnify" viewBox="0 0 705 591.000005" height="788" preserveAspectRatio="xMidYMid meet" version="1.2"><defs><clipPath id="4390276bcf"><path d="M 0.59375 0 L 704.402344 0 L 704.402344 590 L 0.59375 590 Z M 0.59375 0 "/></clipPath><clipPath id="645a28921c"><path d="M 61 236.421875 L 239 236.421875 L 239 353.222656 L 61 353.222656 Z M 61 236.421875 "/></clipPath><clipPath id="cb10c19006"><path d="M 76 236.421875 L 239 236.421875 L 239 353.222656 L 76 353.222656 Z M 76 236.421875 "/></clipPath><clipPath id="38e1a7f835"><path d="M 76.773438 259.230469 C 85.503906 245.808594 98.101562 236.421875 112.550781 236.421875 C 120.917969 236.421875 129.238281 238.890625 137.925781 245.964844 C 147.429688 253.703125 157.554688 266.441406 170.191406 287.433594 L 174.722656 294.96875 C 185.660156 313.144531 191.882812 322.492188 195.523438 326.902344 C 200.207031 332.566406 203.488281 334.253906 207.746094 334.253906 C 218.554688 334.253906 221.253906 324.347656 221.253906 313.007812 L 238.050781 312.480469 C 238.050781 324.332031 235.710938 333.042969 231.722656 339.921875 C 227.875 346.574219 220.371094 353.222656 207.746094 353.222656 C 199.898438 353.222656 192.949219 351.523438 185.261719 344.289062 C 179.351562 338.734375 172.441406 328.871094 167.125 320.003906 L 151.316406 293.660156 C 143.382812 280.4375 136.105469 270.578125 131.894531 266.117188 C 127.363281 261.316406 121.539062 255.519531 112.246094 255.519531 C 104.722656 255.519531 98.335938 260.785156 92.988281 268.835938 Z M 76.773438 259.230469 "/></clipPath><linearGradient x1="18.688835" gradientTransform="matrix(0.613062,0,0,0.611531,61.758863,236.419998)" y1="114.863072" x2="290.711437" gradientUnits="userSpaceOnUse" y2="128.601588" id="2eaac5aaea"><stop style="stop-color:#0064e1;stop-opacity:1;" offset="0"/><stop style="stop-color:#0064e1;stop-opacity:1;" offset="0.0353718"/><stop style="stop-color:#0064e1;stop-opacity:1;" offset="0.25"/><stop style="stop-color:#0064e1;stop-opacity:1;" offset="0.375"/><stop style="stop-color:#0064e1;stop-opacity:1;" offset="0.4375"/><stop style="stop-color:#0064e1;stop-opacity:1;" offset="0.453125"/><stop style="stop-color:#0065e1;stop-opacity:1;" offset="0.46875"/><stop style="stop-color:#0065e2;stop-opacity:1;" offset="0.484375"/><stop style="stop-color:#0066e3;stop-opacity:1;" offset="0.5"/><stop style="stop-color:#0067e3;stop-opacity:1;" offset="0.515625"/><stop style="stop-color:#0068e4;stop-opacity:1;" offset="0.53125"/><stop style="stop-color:#0068e5;stop-opacity:1;" offset="0.546875"/><stop style="stop-color:#0069e5;stop-opacity:1;" offset="0.5625"/><stop style="stop-color:#006ae6;stop-opacity:1;" offset="0.578125"/><stop style="stop-color:#006be7;stop-opacity:1;" offset="0.59375"/><stop style="stop-color:#006be7;stop-opacity:1;" offset="0.609375"/><stop style="stop-color:#006ce8;stop-opacity:1;" offset="0.625"/><stop style="stop-color:#006de9;stop-opacity:1;" offset="0.640625"/><stop style="stop-color:#006ee9;stop-opacity:1;" offset="0.65625"/><stop style="stop-color:#006eea;stop-opacity:1;" offset="0.671875"/><stop style="stop-color:#006feb;stop-opacity:1;" offset="0.6875"/><stop style="stop-color:#0070eb;stop-opacity:1;" offset="0.703125"/><stop style="stop-color:#0071ec;stop-opacity:1;" offset="0.71875"/><stop style="stop-color:#0071ed;stop-opacity:1;" offset="0.734375"/><stop style="stop-color:#0072ed;stop-opacity:1;" offset="0.75"/><stop style="stop-color:#0073ee;stop-opacity:1;" offset="0.757813"/><stop style="stop-color:#0073ee;stop-opacity:1;" offset="0.765625"/><stop style="stop-color:#0074ef;stop-opacity:1;" offset="0.773438"/><stop style="stop-color:#0075f0;stop-opacity:1;" offset="0.78125"/><stop style="stop-color:#0076f1;stop-opacity:1;" offset="0.789062"/><stop style="stop-color:#0077f1;stop-opacity:1;" offset="0.796875"/><stop style="stop-color:#0078f2;stop-opacity:1;" offset="0.804688"/><stop style="stop-color:#0079f3;stop-opacity:1;" offset="0.8125"/><stop style="stop-color:#007af4;stop-opacity:1;" offset="0.820312"/><stop style="stop-color:#007bf5;stop-opacity:1;" offset="0.828125"/><stop style="stop-color:#007cf6;stop-opacity:1;" offset="0.835937"/><stop style="stop-color:#007df6;stop-opacity:1;" offset="0.84375"/><stop style="stop-color:#007ef7;stop-opacity:1;" offset="0.851562"/><stop style="stop-color:#007ff8;stop-opacity:1;" offset="0.859375"/><stop style="stop-color:#0080f9;stop-opacity:1;" offset="0.867188"/><stop style="stop-color:#0081fa;stop-opacity:1;" offset="0.875"/><stop style="stop-color:#0081fa;stop-opacity:1;" offset="0.882813"/><stop style="stop-color:#0082fb;stop-opacity:1;" offset="0.890625"/><stop style="stop-color:#0082fb;stop-opacity:1;" offset="0.90625"/><stop style="stop-color:#0082fb;stop-opacity:1;" offset="0.9375"/><stop style="stop-color:#0082fb;stop-opacity:1;" offset="0.964628"/><stop style="stop-color:#0082fb;stop-opacity:1;" offset="1"/></linearGradient><clipPath id="4474cdc108"><path d="M 61 236.421875 L 113 236.421875 L 113 340 L 61 340 Z M 61 236.421875 "/></clipPath><clipPath id="c2cce1cea8"><path d="M 112.246094 255.519531 C 104.722656 255.519531 98.335938 260.785156 92.988281 268.835938 C 85.429688 280.21875 80.800781 297.167969 80.800781 313.449219 C 80.800781 320.164062 82.277344 325.316406 84.210938 328.4375 L 67.976562 339.101562 C 63.804688 332.1875 61.757812 323.109375 61.757812 312.769531 C 61.757812 293.964844 66.933594 274.367188 76.773438 259.230469 C 85.503906 245.808594 98.101562 236.421875 112.550781 236.421875 Z M 112.246094 255.519531 "/></clipPath><linearGradient x1="45" gradientTransform="matrix(0.613062,0,0,0.611531,61.758863,236.419998)" y1="167.909972" x2="45" gradientUnits="userSpaceOnUse" y2="-0.0000286186" id="a9b1b34e60"><stop style="stop-color:#0082fb;stop-opacity:1;" offset="0"/><stop style="stop-color:#0082fb;stop-opacity:1;" offset="0.125"/><stop style="stop-color:#0082fb;stop-opacity:1;" offset="0.15625"/><stop style="stop-color:#0082fb;stop-opacity:1;" offset="0.171875"/><stop style="stop-color:#0082fb;stop-opacity:1;" offset="0.179688"/><stop style="stop-color:#0081fa;stop-opacity:1;" offset="0.1875"/><stop style="stop-color:#0081fa;stop-opacity:1;" offset="0.195312"/><stop style="stop-color:#0080f9;stop-opacity:1;" offset="0.203125"/><stop style="stop-color:#0080f9;stop-opacity:1;" offset="0.210938"/><stop style="stop-color:#007ff8;stop-opacity:1;" offset="0.21875"/><stop style="stop-color:#007ff8;stop-opacity:1;" offset="0.226563"/><stop style="stop-color:#007ef7;stop-opacity:1;" offset="0.234375"/><stop style="stop-color:#007df7;stop-opacity:1;" offset="0.242188"/><stop style="stop-color:#007df6;stop-opacity:1;" offset="0.25"/><stop style="stop-color:#007cf6;stop-opacity:1;" offset="0.257813"/><stop style="stop-color:#007cf5;stop-opacity:1;" offset="0.265625"/><stop style="stop-color:#007bf5;stop-opacity:1;" offset="0.273438"/><stop style="stop-color:#007bf4;stop-opacity:1;" offset="0.28125"/><stop style="stop-color:#007af4;stop-opacity:1;" offset="0.289063"/><stop style="stop-color:#007af3;stop-opacity:1;" offset="0.296875"/><stop style="stop-color:#0079f3;stop-opacity:1;" offset="0.304688"/><stop style="stop-color:#0079f2;stop-opacity:1;" offset="0.3125"/><stop style="stop-color:#0078f2;stop-opacity:1;" offset="0.320313"/><stop style="stop-color:#0078f1;stop-opacity:1;" offset="0.328125"/><stop style="stop-color:#0077f1;stop-opacity:1;" offset="0.335938"/><stop style="stop-color:#0076f0;stop-opacity:1;" offset="0.34375"/><stop style="stop-color:#0076f0;stop-opacity:1;" offset="0.351563"/><stop style="stop-color:#0075f0;stop-opacity:1;" offset="0.359375"/><stop style="stop-color:#0075ef;stop-opacity:1;" offset="0.367188"/><stop style="stop-color:#0074ef;stop-opacity:1;" offset="0.375"/><stop style="stop-color:#0074ee;stop-opacity:1;" offset="0.382813"/><stop style="stop-color:#0073ee;stop-opacity:1;" offset="0.390625"/><stop style="stop-color:#0073ed;stop-opacity:1;" offset="0.398438"/><stop style="stop-color:#0072ed;stop-opacity:1;" offset="0.40625"/><stop style="stop-color:#0072ec;stop-opacity:1;" offset="0.414063"/><stop style="stop-color:#0071ec;stop-opacity:1;" offset="0.421875"/><stop style="stop-color:#0070eb;stop-opacity:1;" offset="0.429688"/><stop style="stop-color:#0070eb;stop-opacity:1;" offset="0.4375"/><stop style="stop-color:#006fea;stop-opacity:1;" offset="0.445312"/><stop style="stop-color:#006fea;stop-opacity:1;" offset="0.453125"/><stop style="stop-color:#006ee9;stop-opacity:1;" offset="0.460937"/><stop style="stop-color:#006ee9;stop-opacity:1;" offset="0.46875"/><stop style="stop-color:#006de8;stop-opacity:1;" offset="0.476563"/><stop style="stop-color:#006de8;stop-opacity:1;" offset="0.484375"/><stop style="stop-color:#006ce7;stop-opacity:1;" offset="0.492188"/><stop style="stop-color:#006ce7;stop-opacity:1;" offset="0.5"/><stop style="stop-color:#006be6;stop-opacity:1;" offset="0.507813"/><stop style="stop-color:#006be6;stop-opacity:1;" offset="0.515625"/><stop style="stop-color:#006ae5;stop-opacity:1;" offset="0.523438"/><stop style="stop-color:#0069e5;stop-opacity:1;" offset="0.53125"/><stop style="stop-color:#0069e4;stop-opacity:1;" offset="0.539062"/><stop style="stop-color:#0068e4;stop-opacity:1;" offset="0.546875"/><stop style="stop-color:#0068e3;stop-opacity:1;" offset="0.554688"/><stop style="stop-color:#0067e3;stop-opacity:1;" offset="0.5625"/><stop style="stop-color:#0067e2;stop-opacity:1;" offset="0.570312"/><stop style="stop-color:#0066e2;stop-opacity:1;" offset="0.578125"/><stop style="stop-color:#0066e1;stop-opacity:1;" offset="0.585938"/><stop style="stop-color:#0065e1;stop-opacity:1;" offset="0.59375"/><stop style="stop-color:#0064e0;stop-opacity:1;" offset="0.625"/><stop style="stop-color:#0064e0;stop-opacity:1;" offset="0.75"/><stop style="stop-color:#0064e0;stop-opacity:1;" offset="1"/></linearGradient><clipPath id="0ff8f1c58c"><path d="M 275 240 L 643 240 L 643 353.222656 L 275 353.222656 Z M 275 240 "/></clipPath></defs><g id="22b163cfee"><g clip-rule="nonzero" clip-path="url(#4390276bcf)"><path style=" stroke:none;fill-rule:nonzero;fill:#ffffff;fill-opacity:1;" d="M 0.59375 0 L 704.40625 0 L 704.40625 590 L 0.59375 590 Z M 0.59375 0 "/><path style=" stroke:none;fill-rule:nonzero;fill:#ffffff;fill-opacity:1;" d="M 0.59375 0 L 704.40625 0 L 704.40625 590 L 0.59375 590 Z M 0.59375 0 "/></g><g clip-rule="nonzero" clip-path="url(#645a28921c)"><path style=" stroke:none;fill-rule:nonzero;fill:#0081fb;fill-opacity:1;" d="M 80.800781 313.449219 C 80.800781 320.164062 82.277344 325.316406 84.210938 328.4375 C 86.742188 332.523438 90.519531 334.253906 94.367188 334.253906 C 99.332031 334.253906 103.875 333.023438 112.628906 320.945312 C 119.644531 311.265625 127.910156 297.675781 133.46875 289.160156 L 142.886719 274.726562 C 149.425781 264.703125 157 253.5625 165.679688 246.007812 C 172.765625 239.84375 180.410156 236.421875 188.105469 236.421875 C 201.023438 236.421875 213.328125 243.886719 222.742188 257.890625 C 233.046875 273.226562 238.050781 292.546875 238.050781 312.480469 C 238.050781 324.332031 235.710938 333.042969 231.722656 339.921875 C 227.875 346.574219 220.371094 353.222656 207.746094 353.222656 L 207.746094 334.253906 C 218.554688 334.253906 221.253906 324.347656 221.253906 313.007812 C 221.253906 296.851562 217.476562 278.921875 209.15625 266.109375 C 203.253906 257.023438 195.601562 251.46875 187.183594 251.46875 C 178.082031 251.46875 170.753906 258.320312 162.523438 270.53125 C 158.144531 277.019531 153.652344 284.925781 148.605469 293.847656 L 143.050781 303.664062 C 131.894531 323.398438 129.066406 327.894531 123.488281 335.3125 C 113.710938 348.300781 105.359375 353.222656 94.367188 353.222656 C 81.328125 353.222656 73.082031 347.589844 67.976562 339.101562 C 63.804688 332.1875 61.757812 323.109375 61.757812 312.769531 Z M 80.800781 313.449219 "/></g><g clip-rule="nonzero" clip-path="url(#cb10c19006)"><g clip-rule="nonzero" clip-path="url(#38e1a7f835)"><path style=" stroke:none;fill-rule:nonzero;fill:url(#2eaac5aaea);" d="M 76.773438 236.421875 L 76.773438 353.222656 L 238.050781 353.222656 L 238.050781 236.421875 Z M 76.773438 236.421875 "/></g></g><g clip-rule="nonzero" clip-path="url(#4474cdc108)"><g clip-rule="nonzero" clip-path="url(#c2cce1cea8)"><path style=" stroke:none;fill-rule:nonzero;fill:url(#a9b1b34e60);" d="M 61.757812 236.421875 L 61.757812 339.101562 L 112.550781 339.101562 L 112.550781 236.421875 Z M 61.757812 236.421875 "/></g></g><g clip-rule="nonzero" clip-path="url(#0ff8f1c58c)"><path style=" stroke:none;fill-rule:nonzero;fill:#192830;fill-opacity:1;" d="M 275.066406 240.113281 L 297.09375 240.113281 L 334.546875 307.699219 L 372.003906 240.113281 L 393.554688 240.113281 L 393.554688 351.167969 L 375.585938 351.167969 L 375.585938 266.054688 L 342.738281 324.992188 L 325.878906 324.992188 L 293.035156 266.054688 L 293.035156 351.167969 L 275.066406 351.167969 Z M 449.859375 281.519531 C 436.972656 281.519531 429.210938 291.195312 427.351562 303.175781 L 471.089844 303.175781 C 470.1875 290.832031 463.050781 281.519531 449.859375 281.519531 Z M 409.535156 310 C 409.535156 284.792969 425.867188 266.445312 450.171875 266.445312 C 474.074219 266.445312 488.347656 284.558594 488.347656 311.34375 L 488.347656 316.265625 L 427.351562 316.265625 C 429.515625 329.300781 438.183594 338.082031 452.164062 338.082031 C 463.3125 338.082031 470.285156 334.6875 476.894531 328.480469 L 486.4375 340.140625 C 477.445312 348.390625 466.003906 353.148438 451.523438 353.148438 C 425.21875 353.148438 409.535156 334.015625 409.535156 310 Z M 510.132812 283.109375 L 493.59375 283.109375 L 493.59375 268.433594 L 510.132812 268.433594 L 510.132812 244.160156 L 527.472656 244.160156 L 527.472656 268.433594 L 552.601562 268.433594 L 552.601562 283.109375 L 527.472656 283.109375 L 527.472656 320.308594 C 527.472656 333.011719 531.542969 337.523438 541.546875 337.523438 C 546.113281 337.523438 548.730469 337.132812 552.601562 336.492188 L 552.601562 351.007812 C 547.78125 352.367188 543.183594 352.988281 538.207031 352.988281 C 519.488281 352.988281 510.132812 342.789062 510.132812 322.371094 Z M 625.605469 297.382812 C 622.121094 288.613281 614.355469 282.15625 602.9375 282.15625 C 588.101562 282.15625 578.605469 292.65625 578.605469 309.761719 C 578.605469 326.4375 587.347656 337.445312 602.226562 337.445312 C 613.925781 337.445312 622.273438 330.65625 625.605469 322.210938 Z M 642.941406 351.167969 L 625.921875 351.167969 L 625.921875 339.585938 C 621.164062 346.402344 612.507812 353.148438 598.488281 353.148438 C 575.941406 353.148438 560.871094 334.320312 560.871094 309.761719 C 560.871094 284.96875 576.300781 266.445312 599.445312 266.445312 C 610.882812 266.445312 619.859375 271.007812 625.921875 279.0625 L 625.921875 268.433594 L 642.941406 268.433594 Z M 642.941406 351.167969 "/></g></g></svg>