<svg xmlns="http://www.w3.org/2000/svg" xmlns:xlink="http://www.w3.org/1999/xlink" width="940" zoomAndPan="magnify" viewBox="0 0 705 591.000005" height="788" preserveAspectRatio="xMidYMid meet" version="1.2"><defs><clipPath id="ae5f6e7c18"><path d="M 0.59375 0 L 704.402344 0 L 704.402344 590 L 0.59375 590 Z M 0.59375 0 "/></clipPath><clipPath id="76e0afacfd"><path d="M 222 249 L 645.105469 249 L 645.105469 332 L 222 332 Z M 222 249 "/></clipPath><clipPath id="7c64f5aa71"><path d="M 59.59375 230 L 119 230 L 119 290 L 59.59375 290 Z M 59.59375 230 "/></clipPath><clipPath id="1b8cfc0728"><path d="M 59.59375 295 L 119 295 L 119 356 L 59.59375 356 Z M 59.59375 295 "/></clipPath></defs><g id="c0a880b0f4"><g clip-rule="nonzero" clip-path="url(#ae5f6e7c18)"><path style=" stroke:none;fill-rule:nonzero;fill:#ffffff;fill-opacity:1;" d="M 0.59375 0 L 704.40625 0 L 704.40625 590 L 0.59375 590 Z M 0.59375 0 "/><path style=" stroke:none;fill-rule:nonzero;fill:#ffffff;fill-opacity:1;" d="M 0.59375 0 L 704.40625 0 L 704.40625 590 L 0.59375 590 Z M 0.59375 0 "/></g><g clip-rule="nonzero" clip-path="url(#76e0afacfd)"><path style=" stroke:none;fill-rule:nonzero;fill:#706d6e;fill-opacity:1;" d="M 645.105469 286.804688 L 645.105469 276.507812 L 632.316406 276.507812 L 632.316406 260.5 L 631.886719 260.632812 L 619.878906 264.308594 L 619.640625 264.378906 L 619.640625 276.507812 L 600.683594 276.507812 L 600.683594 269.75 C 600.683594 266.605469 601.386719 264.195312 602.773438 262.589844 C 604.152344 261.003906 606.121094 260.199219 608.632812 260.199219 C 610.4375 260.199219 612.308594 260.625 614.1875 261.460938 L 614.660156 261.671875 L 614.660156 250.828125 L 614.4375 250.746094 C 612.683594 250.117188 610.296875 249.796875 607.335938 249.796875 C 603.605469 249.796875 600.21875 250.609375 597.261719 252.21875 C 594.304688 253.828125 591.980469 256.128906 590.351562 259.054688 C 588.726562 261.972656 587.902344 265.347656 587.902344 269.078125 L 587.902344 276.507812 L 578.996094 276.507812 L 578.996094 286.804688 L 587.902344 286.804688 L 587.902344 330.183594 L 600.683594 330.183594 L 600.683594 286.804688 L 619.640625 286.804688 L 619.640625 314.371094 C 619.640625 325.726562 624.996094 331.480469 635.558594 331.480469 C 637.292969 331.480469 639.117188 331.273438 640.984375 330.878906 C 642.882812 330.46875 644.175781 330.058594 644.9375 329.625 L 645.105469 329.523438 L 645.105469 319.132812 L 644.585938 319.476562 C 643.890625 319.9375 643.027344 320.316406 642.015625 320.597656 C 640.996094 320.882812 640.148438 321.027344 639.488281 321.027344 C 637.015625 321.027344 635.183594 320.359375 634.050781 319.042969 C 632.902344 317.714844 632.320312 315.394531 632.320312 312.144531 L 632.320312 286.804688 Z M 550.453125 321.027344 C 545.816406 321.027344 542.15625 319.488281 539.578125 316.457031 C 536.984375 313.414062 535.671875 309.070312 535.671875 303.554688 C 535.671875 297.863281 536.984375 293.410156 539.582031 290.308594 C 542.160156 287.230469 545.78125 285.667969 550.351562 285.667969 C 554.78125 285.667969 558.308594 287.160156 560.835938 290.105469 C 563.375 293.066406 564.664062 297.484375 564.664062 303.242188 C 564.664062 309.074219 563.453125 313.550781 561.0625 316.546875 C 558.691406 319.515625 555.121094 321.027344 550.453125 321.027344 M 551.023438 275.214844 C 542.171875 275.214844 535.140625 277.808594 530.128906 282.921875 C 525.117188 288.039062 522.578125 295.117188 522.578125 303.964844 C 522.578125 312.371094 525.058594 319.128906 529.949219 324.054688 C 534.839844 328.980469 541.492188 331.476562 549.726562 331.476562 C 558.308594 331.476562 565.199219 328.847656 570.207031 323.660156 C 575.21875 318.480469 577.757812 311.46875 577.757812 302.828125 C 577.757812 294.292969 575.375 287.480469 570.675781 282.589844 C 565.972656 277.695312 559.359375 275.214844 551.023438 275.214844 M 501.972656 275.214844 C 495.949219 275.214844 490.96875 276.753906 487.164062 279.792969 C 483.335938 282.84375 481.394531 286.851562 481.394531 291.699219 C 481.394531 294.21875 481.816406 296.457031 482.640625 298.355469 C 483.46875 300.261719 484.753906 301.9375 486.460938 303.347656 C 488.152344 304.742188 490.765625 306.203125 494.230469 307.691406 C 497.140625 308.890625 499.3125 309.902344 500.691406 310.703125 C 502.039062 311.484375 502.996094 312.273438 503.535156 313.039062 C 504.058594 313.789062 504.328125 314.8125 504.328125 316.082031 C 504.328125 319.6875 501.625 321.441406 496.070312 321.441406 C 494.007812 321.441406 491.65625 321.011719 489.082031 320.164062 C 486.507812 319.320312 484.125 318.113281 481.925781 316.535156 L 481.394531 316.152344 L 481.394531 328.460938 L 481.589844 328.550781 C 483.398438 329.386719 485.679688 330.089844 488.367188 330.644531 C 491.046875 331.199219 493.484375 331.480469 495.601562 331.480469 C 502.136719 331.480469 507.398438 329.933594 511.238281 326.878906 C 515.101562 323.800781 517.058594 319.703125 517.058594 314.6875 C 517.058594 311.066406 516.003906 307.964844 513.925781 305.464844 C 511.863281 302.980469 508.28125 300.703125 503.285156 298.6875 C 499.308594 297.089844 496.757812 295.765625 495.707031 294.746094 C 494.691406 293.765625 494.175781 292.375 494.175781 290.613281 C 494.175781 289.050781 494.8125 287.800781 496.117188 286.789062 C 497.433594 285.769531 499.261719 285.253906 501.558594 285.253906 C 503.6875 285.253906 505.867188 285.589844 508.03125 286.25 C 510.199219 286.90625 512.101562 287.789062 513.6875 288.871094 L 514.210938 289.226562 L 514.210938 277.554688 L 514.007812 277.46875 C 512.542969 276.839844 510.613281 276.300781 508.265625 275.867188 C 505.933594 275.433594 503.8125 275.214844 501.972656 275.214844 M 448.074219 321.027344 C 443.4375 321.027344 439.777344 319.488281 437.199219 316.457031 C 434.605469 313.414062 433.292969 309.074219 433.292969 303.554688 C 433.292969 297.863281 434.609375 293.410156 437.203125 290.308594 C 439.78125 287.230469 443.402344 285.667969 447.972656 285.667969 C 452.402344 285.667969 455.929688 287.160156 458.457031 290.105469 C 461 293.066406 462.289062 297.484375 462.289062 303.242188 C 462.289062 309.074219 461.074219 313.550781 458.683594 316.546875 C 456.308594 319.515625 452.742188 321.027344 448.074219 321.027344 M 448.644531 275.214844 C 439.792969 275.214844 432.761719 277.808594 427.75 282.921875 C 422.742188 288.039062 420.199219 295.117188 420.199219 303.964844 C 420.199219 312.375 422.679688 319.128906 427.570312 324.054688 C 432.460938 328.980469 439.117188 331.476562 447.347656 331.476562 C 455.929688 331.476562 462.820312 328.847656 467.832031 323.660156 C 472.839844 318.480469 475.378906 311.46875 475.378906 302.828125 C 475.378906 294.292969 472.996094 287.480469 468.296875 282.589844 C 463.59375 277.695312 456.980469 275.214844 448.644531 275.214844 M 400.796875 285.804688 L 400.796875 276.507812 L 388.171875 276.507812 L 388.171875 330.183594 L 400.796875 330.183594 L 400.796875 302.726562 C 400.796875 298.058594 401.855469 294.222656 403.945312 291.324219 C 406.007812 288.460938 408.753906 287.011719 412.109375 287.011719 C 413.246094 287.011719 414.523438 287.199219 415.90625 287.570312 C 417.277344 287.9375 418.265625 288.339844 418.851562 288.761719 L 419.382812 289.144531 L 419.382812 276.414062 L 419.175781 276.328125 C 418 275.828125 416.339844 275.578125 414.234375 275.578125 C 411.0625 275.578125 408.222656 276.597656 405.789062 278.601562 C 403.65625 280.367188 402.113281 282.785156 400.933594 285.804688 Z M 365.558594 275.214844 C 359.769531 275.214844 354.601562 276.457031 350.207031 278.90625 C 345.800781 281.359375 342.398438 284.863281 340.078125 289.316406 C 337.773438 293.761719 336.601562 298.953125 336.601562 304.746094 C 336.601562 309.816406 337.738281 314.46875 339.980469 318.570312 C 342.226562 322.679688 345.40625 325.894531 349.429688 328.125 C 353.449219 330.351562 358.09375 331.480469 363.234375 331.480469 C 369.234375 331.480469 374.355469 330.28125 378.464844 327.914062 L 378.628906 327.820312 L 378.628906 316.25 L 378.101562 316.636719 C 376.238281 317.992188 374.160156 319.074219 371.921875 319.855469 C 369.691406 320.632812 367.65625 321.027344 365.871094 321.027344 C 360.917969 321.027344 356.941406 319.476562 354.054688 316.421875 C 351.160156 313.359375 349.695312 309.0625 349.695312 303.65625 C 349.695312 298.214844 351.222656 293.808594 354.238281 290.554688 C 357.246094 287.3125 361.230469 285.667969 366.082031 285.667969 C 370.230469 285.667969 374.273438 287.074219 378.101562 289.847656 L 378.628906 290.234375 L 378.628906 278.042969 L 378.460938 277.949219 C 377.019531 277.140625 375.054688 276.476562 372.617188 275.972656 C 370.191406 275.46875 367.816406 275.214844 365.558594 275.214844 M 327.90625 276.507812 L 315.28125 276.507812 L 315.28125 330.183594 L 327.90625 330.183594 Z M 321.722656 253.640625 C 319.644531 253.640625 317.832031 254.351562 316.34375 255.75 C 314.847656 257.15625 314.089844 258.925781 314.089844 261.015625 C 314.089844 263.070312 314.835938 264.808594 316.320312 266.179688 C 317.789062 267.542969 319.609375 268.234375 321.722656 268.234375 C 323.835938 268.234375 325.660156 267.542969 327.148438 266.179688 C 328.648438 264.808594 329.410156 263.074219 329.410156 261.015625 C 329.410156 259 328.667969 257.25 327.210938 255.808594 C 325.753906 254.371094 323.90625 253.640625 321.722656 253.640625 M 290.21875 272.546875 L 290.21875 330.183594 L 303.105469 330.183594 L 303.105469 255.285156 L 285.269531 255.285156 L 262.601562 310.917969 L 240.605469 255.285156 L 222.042969 255.285156 L 222.042969 330.183594 L 234.152344 330.183594 L 234.152344 272.542969 L 234.566406 272.542969 L 257.796875 330.183594 L 266.9375 330.183594 L 289.804688 272.546875 Z M 290.21875 272.546875 "/></g><g clip-rule="nonzero" clip-path="url(#7c64f5aa71)"><path style=" stroke:none;fill-rule:nonzero;fill:#f1511b;fill-opacity:1;" d="M 59.59375 230.257812 L 118.992188 230.257812 L 118.992188 289.652344 L 59.59375 289.652344 Z M 59.59375 230.257812 "/></g><path style=" stroke:none;fill-rule:nonzero;fill:#80cc28;fill-opacity:1;" d="M 184.574219 289.652344 L 125.175781 289.652344 L 125.175781 230.257812 L 184.574219 230.257812 Z M 184.574219 289.652344 "/><g clip-rule="nonzero" clip-path="url(#1b8cfc0728)"><path style=" stroke:none;fill-rule:nonzero;fill:#00adef;fill-opacity:1;" d="M 59.59375 295.863281 L 118.992188 295.863281 L 118.992188 355.257812 L 59.59375 355.257812 Z M 59.59375 295.863281 "/></g><path style=" stroke:none;fill-rule:nonzero;fill:#fbbc09;fill-opacity:1;" d="M 184.574219 355.257812 L 125.175781 355.257812 L 125.175781 295.863281 L 184.574219 295.863281 Z M 184.574219 355.257812 "/></g></svg>