<svg xmlns="http://www.w3.org/2000/svg" xmlns:xlink="http://www.w3.org/1999/xlink" width="940" zoomAndPan="magnify" viewBox="0 0 705 591.000005" height="788" preserveAspectRatio="xMidYMid meet" version="1.2"><defs><clipPath id="2eb757422b"><path d="M 0.59375 0 L 704.402344 0 L 704.402344 590 L 0.59375 590 Z M 0.59375 0 "/></clipPath></defs><g id="c6fe4ee4f2"><g clip-rule="nonzero" clip-path="url(#2eb757422b)"><path style=" stroke:none;fill-rule:nonzero;fill:#ffffff;fill-opacity:1;" d="M 0.59375 0 L 704.40625 0 L 704.40625 590 L 0.59375 590 Z M 0.59375 0 "/><path style=" stroke:none;fill-rule:nonzero;fill:#ffffff;fill-opacity:1;" d="M 0.59375 0 L 704.40625 0 L 704.40625 590 L 0.59375 590 Z M 0.59375 0 "/></g><path style=" stroke:none;fill-rule:evenodd;fill:#05bfe0;fill-opacity:1;" d="M 123.746094 339.105469 C 123.746094 338.4375 123.78125 337.769531 123.84375 337.101562 C 123.910156 336.433594 124.007812 335.773438 124.136719 335.113281 C 124.269531 334.457031 124.429688 333.808594 124.625 333.167969 C 124.816406 332.523438 125.042969 331.894531 125.296875 331.273438 C 125.554688 330.65625 125.839844 330.050781 126.15625 329.460938 C 126.46875 328.867188 126.8125 328.292969 127.183594 327.734375 C 127.554688 327.179688 127.953125 326.640625 128.375 326.121094 C 128.800781 325.605469 129.25 325.109375 129.722656 324.632812 C 130.195312 324.160156 130.691406 323.710938 131.207031 323.285156 C 131.722656 322.859375 132.257812 322.460938 132.816406 322.085938 C 133.371094 321.714844 133.945312 321.371094 134.535156 321.054688 C 135.125 320.738281 135.726562 320.449219 136.34375 320.195312 C 136.964844 319.9375 137.589844 319.710938 138.230469 319.515625 C 138.871094 319.320312 139.519531 319.15625 140.175781 319.027344 C 140.832031 318.894531 141.492188 318.796875 142.15625 318.730469 C 142.824219 318.664062 143.492188 318.632812 144.160156 318.628906 L 144.191406 318.628906 L 144.191406 298.164062 L 62.488281 298.164062 L 62.488281 318.628906 C 63.15625 318.628906 63.824219 318.664062 64.488281 318.730469 C 65.15625 318.796875 65.816406 318.894531 66.472656 319.023438 C 67.128906 319.15625 67.777344 319.316406 68.417969 319.511719 C 69.058594 319.707031 69.6875 319.933594 70.304688 320.1875 C 70.921875 320.445312 71.527344 320.730469 72.117188 321.046875 C 72.707031 321.363281 73.277344 321.707031 73.835938 322.078125 C 74.390625 322.453125 74.925781 322.851562 75.445312 323.277344 C 75.960938 323.703125 76.457031 324.152344 76.929688 324.625 C 77.402344 325.097656 77.851562 325.59375 78.277344 326.113281 C 78.699219 326.632812 79.097656 327.167969 79.46875 327.726562 C 79.839844 328.285156 80.183594 328.859375 80.5 329.449219 C 80.816406 330.039062 81.101562 330.644531 81.355469 331.265625 C 81.613281 331.882812 81.839844 332.515625 82.03125 333.15625 C 82.226562 333.796875 82.386719 334.445312 82.519531 335.105469 C 82.648438 335.761719 82.746094 336.421875 82.8125 337.089844 C 82.878906 337.757812 82.910156 338.425781 82.910156 339.097656 L 82.910156 339.105469 C 82.910156 339.777344 82.878906 340.445312 82.8125 341.113281 C 82.746094 341.78125 82.648438 342.441406 82.519531 343.101562 C 82.390625 343.757812 82.226562 344.40625 82.03125 345.046875 C 81.839844 345.691406 81.613281 346.320312 81.359375 346.941406 C 81.101562 347.558594 80.816406 348.164062 80.5 348.753906 C 80.1875 349.347656 79.84375 349.921875 79.46875 350.476562 C 79.097656 351.035156 78.699219 351.574219 78.277344 352.089844 C 77.851562 352.609375 77.402344 353.105469 76.929688 353.578125 C 76.457031 354.054688 75.960938 354.503906 75.445312 354.929688 C 74.929688 355.351562 74.390625 355.753906 73.835938 356.125 C 73.28125 356.496094 72.707031 356.839844 72.117188 357.15625 C 71.527344 357.472656 70.921875 357.757812 70.304688 358.015625 C 69.6875 358.273438 69.058594 358.496094 68.417969 358.691406 C 67.777344 358.886719 67.128906 359.050781 66.472656 359.179688 C 65.816406 359.3125 65.15625 359.410156 64.492188 359.472656 C 63.824219 359.539062 63.15625 359.574219 62.488281 359.574219 L 62.488281 380.039062 L 144.191406 380.039062 L 144.191406 359.570312 C 143.523438 359.570312 142.855469 359.539062 142.191406 359.472656 C 141.523438 359.410156 140.863281 359.3125 140.207031 359.179688 C 139.550781 359.050781 138.902344 358.890625 138.261719 358.695312 C 137.621094 358.503906 136.992188 358.277344 136.375 358.023438 C 135.757812 357.765625 135.152344 357.480469 134.5625 357.164062 C 133.972656 356.851562 133.398438 356.507812 132.84375 356.132812 C 132.285156 355.761719 131.75 355.363281 131.230469 354.941406 C 130.714844 354.515625 130.21875 354.066406 129.746094 353.59375 C 129.269531 353.121094 128.820312 352.625 128.398438 352.105469 C 127.972656 351.589844 127.574219 351.050781 127.203125 350.496094 C 126.828125 349.9375 126.484375 349.363281 126.167969 348.773438 C 125.851562 348.183594 125.566406 347.578125 125.308594 346.957031 C 125.054688 346.339844 124.828125 345.710938 124.632812 345.070312 C 124.4375 344.425781 124.273438 343.777344 124.144531 343.121094 C 124.011719 342.464844 123.914062 341.800781 123.847656 341.136719 C 123.78125 340.46875 123.746094 339.800781 123.746094 339.128906 Z M 123.746094 339.105469 "/><path style=" stroke:none;fill-rule:evenodd;fill:#ff610f;fill-opacity:1;" d="M 193.214844 251.757812 C 193.207031 229.15625 174.921875 210.832031 152.363281 210.832031 L 152.363281 292.707031 C 174.921875 292.707031 193.207031 274.386719 193.214844 251.78125 C 193.21875 274.386719 211.507812 292.707031 234.066406 292.707031 L 234.066406 210.832031 C 211.507812 210.832031 193.21875 229.15625 193.214844 251.757812 "/><path style=" stroke:none;fill-rule:evenodd;fill:#231f20;fill-opacity:1;" d="M 116.070312 251.769531 L 77.847656 251.769531 L 77.847656 226.21875 L 116.074219 226.21875 C 116.910156 226.222656 117.738281 226.304688 118.558594 226.464844 C 119.378906 226.628906 120.175781 226.871094 120.949219 227.195312 C 121.722656 227.515625 122.457031 227.910156 123.152344 228.375 C 123.847656 228.839844 124.492188 229.371094 125.085938 229.964844 C 125.675781 230.554688 126.203125 231.203125 126.667969 231.898438 C 127.132812 232.597656 127.527344 233.332031 127.847656 234.109375 C 128.167969 234.882812 128.40625 235.679688 128.570312 236.503906 C 128.734375 237.328125 128.816406 238.15625 128.816406 238.996094 C 128.816406 239.835938 128.734375 240.664062 128.570312 241.488281 C 128.40625 242.308594 128.167969 243.109375 127.847656 243.882812 C 127.527344 244.660156 127.132812 245.394531 126.667969 246.09375 C 126.203125 246.789062 125.675781 247.433594 125.082031 248.027344 C 124.492188 248.621094 123.847656 249.152344 123.152344 249.617188 C 122.457031 250.082031 121.722656 250.476562 120.949219 250.796875 C 120.175781 251.117188 119.378906 251.363281 118.554688 251.523438 C 117.734375 251.6875 116.90625 251.769531 116.070312 251.769531 Z M 118.617188 210.960938 C 117.769531 210.878906 116.921875 210.835938 116.070312 210.832031 L 62.488281 210.832031 L 62.488281 292.707031 L 77.789062 292.707031 L 77.789062 267.15625 L 116.070312 267.15625 C 116.925781 267.15625 117.773438 267.15625 118.617188 267.027344 C 134.050781 265.65625 145.449219 251.996094 144.082031 236.527344 C 144.007812 235.710938 143.902344 234.902344 143.757812 234.097656 C 143.617188 233.292969 143.441406 232.496094 143.226562 231.707031 C 143.015625 230.917969 142.769531 230.140625 142.492188 229.375 C 142.210938 228.605469 141.902344 227.851562 141.554688 227.113281 C 141.210938 226.371094 140.835938 225.648438 140.425781 224.941406 C 140.019531 224.234375 139.582031 223.546875 139.113281 222.875 C 138.644531 222.207031 138.148438 221.558594 137.625 220.933594 C 137.101562 220.308594 136.550781 219.707031 135.976562 219.128906 C 135.398438 218.550781 134.800781 218 134.175781 217.472656 C 133.550781 216.949219 132.90625 216.449219 132.238281 215.980469 C 131.570312 215.511719 130.882812 215.074219 130.175781 214.664062 C 129.472656 214.257812 128.75 213.878906 128.011719 213.53125 C 127.273438 213.1875 126.519531 212.875 125.753906 212.59375 C 124.988281 212.3125 124.210938 212.066406 123.425781 211.855469 C 122.636719 211.640625 121.84375 211.464844 121.039062 211.320312 C 120.238281 211.179688 119.429688 211.070312 118.617188 210.996094 Z M 118.617188 210.960938 "/><path style=" stroke:none;fill-rule:evenodd;fill:#4f17a8;fill-opacity:1;" d="M 149.640625 380.039062 L 149.640625 355.476562 L 174.148438 380.039062 Z M 197.628906 380.039062 L 152.363281 334.667969 L 152.363281 311.8125 L 220.449219 380.039062 Z M 234.066406 298.164062 L 234.066406 322.726562 L 209.554688 298.164062 Z M 231.34375 366.394531 L 163.257812 298.164062 L 186.148438 298.164062 L 231.34375 343.449219 Z M 231.34375 366.394531 "/><path style=" stroke:none;fill-rule:evenodd;fill:#000000;fill-opacity:1;" d="M 241.464844 374.582031 L 242.632812 374.582031 L 244.589844 378.988281 L 246.511719 374.582031 L 247.683594 374.582031 L 247.683594 380.039062 L 246.828125 380.039062 L 246.828125 375.769531 L 244.953125 380.039062 L 244.144531 380.039062 L 242.28125 375.769531 L 242.28125 380.039062 L 241.417969 380.039062 Z M 238.417969 375.351562 L 236.789062 375.351562 L 236.789062 374.582031 L 240.902344 374.582031 L 240.902344 375.351562 L 239.285156 375.351562 L 239.285156 380.015625 L 238.417969 380.015625 Z M 292.613281 229.210938 C 294.011719 229.234375 295.402344 228.9375 296.691406 228.351562 C 297.855469 227.808594 298.796875 227.007812 299.523438 225.941406 C 300.199219 224.949219 300.550781 223.757812 300.539062 222.539062 C 300.558594 221.300781 300.214844 220.082031 299.546875 219.0625 C 298.832031 218.015625 297.898438 217.226562 296.746094 216.703125 C 295.433594 216.105469 294.054688 215.816406 292.613281 215.84375 L 284.613281 215.84375 L 284.613281 229.164062 Z M 274.929688 208.105469 L 294.238281 208.105469 C 296.898438 208.105469 299.527344 208.679688 301.964844 209.789062 C 304.425781 210.886719 306.445312 212.53125 308.011719 214.726562 C 309.59375 217.007812 310.402344 219.773438 310.316406 222.589844 C 310.351562 225.253906 309.664062 227.714844 308.246094 229.972656 C 306.808594 232.234375 304.890625 233.949219 302.484375 235.121094 C 299.84375 236.417969 297.050781 237.046875 294.109375 236.996094 L 284.605469 236.996094 L 284.605469 251.769531 L 274.917969 251.769531 Z M 315.769531 219.933594 L 322.898438 219.933594 L 324.273438 224.597656 C 324.980469 222.90625 326.207031 221.460938 327.792969 220.453125 C 329.417969 219.464844 331.179688 218.988281 333.082031 219.019531 C 334.8125 218.988281 336.429688 219.40625 337.929688 220.277344 C 339.367188 221.15625 340.546875 222.367188 341.363281 223.800781 C 342.289062 225.417969 342.847656 227.199219 343.003906 229.035156 L 335.449219 231.019531 C 335.417969 229.519531 334.886719 228.21875 333.855469 227.125 C 333.457031 226.6875 332.988281 226.335938 332.457031 226.070312 C 331.925781 225.804688 331.363281 225.644531 330.769531 225.589844 C 330.179688 225.535156 329.597656 225.585938 329.023438 225.75 C 328.453125 225.910156 327.929688 226.171875 327.453125 226.527344 C 326.546875 227.242188 325.859375 228.171875 325.457031 229.226562 C 324.96875 230.476562 324.734375 231.777344 324.753906 233.121094 L 324.753906 249.042969 L 315.78125 249.042969 Z M 366.132812 240.953125 C 367.316406 240.28125 368.234375 239.34375 368.886719 238.144531 C 369.554688 236.871094 369.886719 235.460938 369.859375 234.035156 C 369.886719 232.578125 369.5625 231.207031 368.886719 229.914062 C 368.230469 228.71875 367.3125 227.777344 366.132812 227.097656 C 364.902344 226.402344 363.578125 226.058594 362.164062 226.074219 C 360.75 226.054688 359.429688 226.394531 358.199219 227.097656 C 357.027344 227.777344 356.121094 228.714844 355.476562 229.90625 C 354.792969 231.195312 354.464844 232.566406 354.492188 234.027344 C 354.464844 235.453125 354.800781 236.863281 355.476562 238.132812 C 356.089844 239.296875 357.035156 240.273438 358.203125 240.945312 C 359.398438 241.636719 360.785156 241.992188 362.1875 241.96875 C 363.574219 241.984375 364.9375 241.632812 366.132812 240.953125 Z M 353.667969 247.164062 C 351.234375 245.96875 349.3125 244.214844 347.894531 241.902344 C 346.421875 239.488281 345.703125 236.867188 345.730469 234.035156 C 345.671875 231.21875 346.359375 228.597656 347.796875 226.171875 C 349.238281 223.839844 351.195312 222.082031 353.667969 220.898438 C 355 220.28125 356.382812 219.8125 357.8125 219.496094 C 359.246094 219.179688 360.699219 219.023438 362.164062 219.023438 C 363.632812 219.023438 365.082031 219.179688 366.515625 219.496094 C 367.949219 219.8125 369.332031 220.28125 370.664062 220.898438 C 373.0625 222.109375 374.949219 223.867188 376.332031 226.171875 C 377.773438 228.59375 378.464844 231.214844 378.40625 234.035156 C 378.464844 236.855469 377.773438 239.480469 376.332031 241.902344 C 374.921875 244.21875 372.996094 245.972656 370.5625 247.164062 C 369.230469 247.78125 367.847656 248.25 366.414062 248.566406 C 364.980469 248.882812 363.53125 249.042969 362.0625 249.042969 C 360.59375 249.042969 359.144531 248.882812 357.710938 248.566406 C 356.277344 248.25 354.894531 247.78125 353.5625 247.164062 Z M 353.667969 247.164062 "/><path style=" stroke:none;fill-rule:evenodd;fill:#000000;fill-opacity:1;" d="M 382.34375 215.199219 C 381.839844 214.71875 381.457031 214.152344 381.195312 213.503906 C 380.933594 212.855469 380.8125 212.183594 380.839844 211.484375 C 380.804688 210.792969 380.917969 210.121094 381.175781 209.472656 C 381.429688 208.828125 381.808594 208.261719 382.308594 207.78125 C 382.84375 207.324219 383.4375 206.972656 384.097656 206.730469 C 384.753906 206.488281 385.433594 206.367188 386.136719 206.367188 C 386.835938 206.367188 387.515625 206.488281 388.171875 206.730469 C 388.832031 206.972656 389.425781 207.324219 389.960938 207.78125 C 390.953125 208.742188 391.488281 210.066406 391.441406 211.4375 C 391.46875 212.132812 391.355469 212.804688 391.09375 213.453125 C 390.835938 214.101562 390.457031 214.667969 389.960938 215.152344 C 389.425781 215.609375 388.832031 215.960938 388.171875 216.203125 C 387.515625 216.449219 386.835938 216.570312 386.132812 216.570312 C 385.433594 216.570312 384.753906 216.449219 384.09375 216.203125 C 383.4375 215.960938 382.839844 215.609375 382.308594 215.152344 Z M 372.566406 263.664062 C 370.863281 262.921875 369.46875 261.800781 368.378906 260.292969 L 372.335938 255.160156 C 372.816406 256.105469 373.550781 256.90625 374.457031 257.464844 C 375.308594 257.996094 376.289062 258.28125 377.292969 258.285156 C 377.699219 258.296875 378.097656 258.246094 378.488281 258.136719 C 378.882812 258.027344 379.25 257.863281 379.589844 257.644531 C 379.933594 257.425781 380.238281 257.164062 380.5 256.851562 C 380.765625 256.542969 380.980469 256.203125 381.140625 255.828125 C 381.503906 255 381.683594 254.101562 381.667969 253.199219 L 381.667969 220.613281 L 390.53125 220.613281 L 390.53125 254.511719 C 390.546875 255.464844 390.429688 256.402344 390.171875 257.320312 C 389.917969 258.238281 389.539062 259.097656 389.03125 259.90625 C 388.523438 260.710938 387.914062 261.429688 387.199219 262.054688 C 386.484375 262.683594 385.691406 263.195312 384.828125 263.59375 C 382.875 264.511719 380.816406 264.953125 378.65625 264.910156 C 376.535156 264.941406 374.507812 264.527344 372.566406 263.664062 Z M 407.71875 226.011719 C 406.710938 226.515625 405.863281 227.269531 405.285156 228.1875 C 404.632812 229.191406 404.191406 230.296875 403.984375 231.453125 L 417.734375 231.453125 C 417.601562 230.285156 417.234375 229.195312 416.628906 228.1875 C 415.496094 226.304688 413.347656 225.152344 411.027344 225.1875 C 409.859375 225.191406 408.753906 225.464844 407.71875 226.011719 M 419.417969 220.996094 C 421.757812 222.191406 423.574219 223.9375 424.871094 226.230469 C 426.195312 228.640625 426.855469 231.320312 426.800781 234.03125 L 426.800781 235.328125 C 426.789062 235.691406 426.757812 236.054688 426.707031 236.414062 L 403.984375 236.414062 C 404.15625 237.6875 404.707031 238.890625 405.578125 239.886719 C 406.476562 240.894531 407.628906 241.679688 408.933594 242.171875 C 410.351562 242.714844 411.871094 242.984375 413.402344 242.964844 C 415.199219 242.964844 416.96875 242.59375 418.585938 241.878906 C 420.003906 241.320312 421.214844 240.402344 422.097656 239.234375 L 427.433594 242.757812 C 426.742188 243.808594 425.910156 244.722656 424.925781 245.5 C 423.941406 246.277344 422.863281 246.878906 421.683594 247.308594 C 418.761719 248.507812 415.71875 249.082031 412.5625 249.039062 C 409.371094 249.089844 406.328125 248.441406 403.433594 247.089844 C 400.824219 245.859375 398.710938 244.046875 397.09375 241.652344 C 396.3125 240.492188 395.722656 239.246094 395.324219 237.90625 C 394.925781 236.566406 394.734375 235.199219 394.753906 233.800781 C 394.695312 231.03125 395.394531 228.464844 396.851562 226.109375 C 398.3125 223.820312 400.261719 222.085938 402.699219 220.894531 C 405.359375 219.597656 408.171875 218.972656 411.136719 219.019531 C 414.058594 218.988281 416.820312 219.644531 419.417969 220.992188 M 438.269531 247.160156 C 435.773438 245.941406 433.789062 244.152344 432.3125 241.796875 C 430.839844 239.421875 430.125 236.839844 430.15625 234.046875 C 430.113281 231.261719 430.792969 228.667969 432.195312 226.261719 C 433.554688 223.949219 435.417969 222.171875 437.792969 220.933594 C 440.34375 219.601562 443.058594 218.964844 445.9375 219.023438 C 448.226562 219.011719 450.484375 219.433594 452.59375 220.265625 C 454.59375 221.035156 456.34375 222.1875 457.84375 223.722656 C 459.234375 225.152344 460.191406 226.910156 460.613281 228.800781 L 452.46875 230.730469 C 452.117188 229.277344 451.34375 228.109375 450.140625 227.222656 C 448.945312 226.3125 447.601562 225.863281 446.101562 225.871094 C 444.800781 225.851562 443.601562 226.191406 442.507812 226.894531 C 441.394531 227.621094 440.558594 228.585938 440.003906 229.796875 C 439.363281 231.140625 439.058594 232.554688 439.082031 234.046875 C 439.0625 235.519531 439.414062 236.980469 440.117188 238.296875 C 440.746094 239.488281 441.714844 240.492188 442.910156 241.199219 C 445.226562 242.46875 448.074219 242.550781 450.46875 241.417969 C 451.542969 240.894531 452.480469 240.148438 453.203125 239.234375 C 453.933594 238.308594 454.40625 237.226562 454.585938 236.085938 L 462.835938 237.175781 C 462.523438 239.484375 461.613281 241.527344 460.101562 243.300781 C 458.519531 245.160156 456.601562 246.566406 454.355469 247.519531 C 453.078125 248.054688 451.757812 248.449219 450.398438 248.703125 C 449.039062 248.960938 447.667969 249.070312 446.285156 249.039062 C 444.902344 249.003906 443.535156 248.828125 442.1875 248.507812 C 440.84375 248.1875 439.542969 247.730469 438.292969 247.140625 Z M 474.480469 250.449219 C 472.703125 249.617188 471.316406 248.355469 470.320312 246.660156 C 469.320312 244.84375 468.851562 242.898438 468.914062 240.824219 L 468.914062 227.632812 L 462.835938 227.632812 L 462.835938 220.976562 L 468.910156 220.976562 L 468.910156 212.757812 L 478.195312 210.832031 L 478.125 220.976562 L 490.933594 220.976562 L 490.933594 227.632812 L 478.125 227.632812 L 478.1875 239.464844 C 478.117188 240.855469 478.601562 242.222656 479.546875 243.285156 C 480.007812 243.761719 480.542969 244.121094 481.160156 244.367188 C 481.773438 244.609375 482.410156 244.71875 483.070312 244.691406 C 484.421875 244.710938 485.742188 244.304688 486.828125 243.542969 C 487.972656 242.707031 488.898438 241.632812 489.523438 240.398438 L 492.796875 245.59375 C 491.632812 247.546875 490.058594 249.082031 488.082031 250.195312 C 485.960938 251.289062 483.574219 251.832031 481.164062 251.761719 C 478.832031 251.84375 476.605469 251.40625 474.480469 250.449219 M 274.917969 273.601562 L 282.269531 273.601562 L 298.066406 309.257812 L 313.867188 273.601562 L 321.21875 273.601562 L 321.21875 314.539062 L 316.140625 314.539062 L 316.140625 280.574219 L 300.753906 314.539062 L 295.371094 314.539062 L 279.996094 280.628906 L 279.996094 314.539062 L 274.917969 314.539062 Z M 343.882812 309.496094 C 345.394531 308.746094 346.605469 307.660156 347.515625 306.242188 C 348.417969 304.820312 348.882812 303.191406 348.867188 301.527344 L 348.867188 299.53125 L 340.050781 300.613281 C 336.804688 301.015625 334.476562 301.699219 333.101562 302.644531 C 332.488281 302.996094 331.996094 303.472656 331.625 304.078125 C 331.253906 304.679688 331.050781 305.335938 331.015625 306.042969 C 331.027344 306.757812 331.226562 307.417969 331.605469 308.019531 C 331.988281 308.625 332.496094 309.082031 333.136719 309.402344 C 334.855469 310.332031 336.695312 310.753906 338.648438 310.671875 C 340.484375 310.699219 342.230469 310.308594 343.882812 309.496094 M 332.066406 313.460938 C 330.46875 312.835938 329.148438 311.84375 328.105469 310.484375 C 327.128906 309.203125 326.648438 307.753906 326.664062 306.140625 C 326.648438 304.613281 327.09375 303.230469 327.992188 301.996094 C 329.101562 300.585938 330.484375 299.53125 332.132812 298.832031 C 334.496094 297.835938 336.953125 297.226562 339.507812 297.007812 L 346.511719 296.183594 C 347.152344 296.152344 347.761719 295.910156 348.242188 295.5 C 348.683594 295.117188 348.902344 294.632812 348.890625 294.042969 C 348.914062 292.898438 348.539062 291.898438 347.773438 291.046875 C 346.921875 290.128906 345.90625 289.457031 344.730469 289.039062 C 343.386719 288.546875 341.996094 288.308594 340.566406 288.320312 C 338.941406 288.296875 337.386719 288.621094 335.902344 289.289062 C 334.617188 289.855469 333.527344 290.683594 332.632812 291.765625 C 331.871094 292.640625 331.410156 293.726562 331.304688 294.867188 L 327.398438 293.273438 C 327.640625 291.679688 328.355469 290.183594 329.464844 288.984375 C 330.78125 287.515625 332.363281 286.429688 334.207031 285.726562 C 336.277344 284.90625 338.496094 284.496094 340.734375 284.523438 C 342.972656 284.484375 345.121094 284.902344 347.183594 285.78125 C 348.988281 286.554688 350.457031 287.746094 351.589844 289.355469 C 352.65625 290.9375 353.210938 292.800781 353.175781 294.695312 L 353.175781 308.8125 C 353.140625 309.324219 353.28125 309.785156 353.597656 310.191406 C 353.871094 310.519531 354.28125 310.707031 354.714844 310.691406 C 355.160156 310.671875 355.558594 310.523438 355.910156 310.246094 C 356.355469 309.917969 356.734375 309.507812 357.023438 309.039062 L 359.34375 311.679688 C 358.695312 312.605469 357.855469 313.300781 356.824219 313.765625 C 355.816406 314.261719 354.703125 314.527344 353.578125 314.535156 C 351.066406 314.644531 348.941406 312.742188 348.832031 310.296875 C 348.824219 310.15625 348.824219 310.011719 348.832031 309.867188 L 348.832031 308.777344 C 348.144531 309.960938 347.269531 310.976562 346.203125 311.828125 C 345.074219 312.734375 343.820312 313.398438 342.441406 313.820312 C 340.933594 314.292969 339.390625 314.519531 337.8125 314.503906 C 335.824219 314.539062 333.910156 314.191406 332.066406 313.460938 M 362.070312 285.664062 L 366.179688 285.664062 L 366.585938 289.894531 C 367.660156 288.164062 369.109375 286.847656 370.929688 285.945312 C 372.796875 284.988281 374.777344 284.515625 376.871094 284.523438 C 379.160156 284.476562 381.417969 285.050781 383.386719 286.183594 C 385.25 287.269531 386.761719 288.832031 387.75 290.699219 C 388.8125 292.730469 389.339844 294.976562 389.304688 297.242188 L 389.304688 314.519531 L 384.722656 314.519531 L 384.722656 297.269531 C 384.746094 295.683594 384.410156 294.175781 383.714844 292.75 C 383.050781 291.421875 382.082031 290.382812 380.800781 289.636719 C 379.417969 288.851562 377.933594 288.476562 376.34375 288.507812 C 370.980469 288.480469 366.613281 292.640625 366.585938 297.796875 L 366.585938 314.539062 L 362.070312 314.539062 Z M 411.949219 309.492188 C 413.464844 308.738281 414.679688 307.652344 415.597656 306.234375 C 416.476562 304.8125 416.921875 303.1875 416.890625 301.53125 L 416.890625 299.523438 L 408.078125 300.609375 C 404.847656 301.007812 402.527344 301.683594 401.132812 302.636719 C 399.890625 303.355469 399.105469 304.632812 399.042969 306.035156 C 399.054688 307.453125 399.875 308.742188 401.167969 309.394531 C 402.886719 310.324219 404.722656 310.746094 406.671875 310.660156 C 408.527344 310.699219 410.285156 310.308594 411.949219 309.488281 M 400.148438 313.449219 C 398.550781 312.832031 397.230469 311.839844 396.1875 310.476562 C 395.214844 309.195312 394.734375 307.75 394.75 306.136719 C 394.734375 304.605469 395.175781 303.222656 396.078125 301.988281 C 397.167969 300.597656 398.609375 299.511719 400.261719 298.828125 C 402.621094 297.828125 405.078125 297.222656 407.632812 297.003906 L 414.640625 296.179688 C 415.273438 296.148438 415.878906 295.910156 416.355469 295.496094 C 416.789062 295.128906 417.007812 294.664062 417.015625 294.097656 C 417.039062 292.949219 416.667969 291.949219 415.898438 291.097656 C 415.042969 290.179688 414.023438 289.511719 412.84375 289.089844 C 411.503906 288.597656 410.121094 288.359375 408.691406 288.375 C 407.066406 288.351562 405.511719 288.671875 404.03125 289.34375 C 402.742188 289.890625 401.644531 290.699219 400.726562 291.761719 C 399.976562 292.644531 399.515625 293.726562 399.402344 294.867188 L 395.507812 293.269531 C 395.742188 291.671875 396.460938 290.179688 397.570312 288.984375 C 398.890625 287.515625 400.46875 286.429688 402.3125 285.726562 C 404.40625 284.894531 406.582031 284.492188 408.839844 284.519531 C 411.035156 284.492188 413.214844 284.929688 415.226562 285.792969 C 417.03125 286.554688 418.578125 287.789062 419.691406 289.363281 C 420.78125 290.976562 421.308594 292.757812 421.273438 294.703125 L 421.273438 308.8125 C 421.242188 309.308594 421.386719 309.796875 421.6875 310.195312 C 421.960938 310.519531 422.371094 310.703125 422.804688 310.695312 C 423.25 310.671875 423.648438 310.523438 423.996094 310.25 C 424.441406 309.917969 424.820312 309.511719 425.113281 309.042969 L 427.433594 311.683594 C 426.796875 312.582031 425.925781 313.300781 424.914062 313.765625 C 423.90625 314.265625 422.792969 314.527344 421.667969 314.539062 C 419.140625 314.636719 417.015625 312.726562 416.910156 310.269531 C 416.90625 310.136719 416.90625 310.003906 416.910156 309.871094 L 416.910156 308.785156 C 416.234375 309.96875 415.359375 310.984375 414.292969 311.832031 C 413.164062 312.734375 411.910156 313.394531 410.53125 313.820312 C 409.039062 314.285156 407.472656 314.515625 405.902344 314.503906 C 403.914062 314.539062 401.996094 314.1875 400.148438 313.449219 M 450.574219 311.0625 C 452.265625 310.015625 453.554688 308.605469 454.441406 306.828125 C 455.398438 304.914062 455.851562 302.886719 455.808594 300.746094 C 455.839844 298.542969 455.371094 296.453125 454.40625 294.472656 C 453.53125 292.652344 452.242188 291.203125 450.539062 290.121094 C 448.863281 289.058594 447.035156 288.539062 445.054688 288.554688 C 441.074219 288.488281 437.40625 290.792969 435.636719 294.484375 C 434.675781 296.460938 434.210938 298.546875 434.246094 300.746094 C 434.214844 302.863281 434.703125 304.949219 435.671875 306.816406 C 436.5625 308.5625 437.902344 310.027344 439.539062 311.046875 C 440.367188 311.546875 441.25 311.925781 442.183594 312.1875 C 443.117188 312.445312 444.070312 312.574219 445.039062 312.574219 C 446.007812 312.574219 446.960938 312.445312 447.894531 312.1875 C 448.828125 311.925781 449.710938 311.546875 450.539062 311.046875 Z M 436.804688 329.714844 C 434.675781 328.96875 432.761719 327.84375 431.070312 326.347656 C 429.496094 324.953125 428.28125 323.292969 427.433594 321.367188 L 431.148438 318.722656 C 431.632812 320.324219 432.464844 321.714844 433.648438 322.894531 C 434.902344 324.152344 436.394531 325.121094 438.035156 325.742188 C 439.839844 326.445312 441.707031 326.789062 443.644531 326.773438 C 445.878906 326.816406 447.96875 326.292969 449.921875 325.207031 C 451.746094 324.183594 453.152344 322.75 454.144531 320.902344 C 455.179688 318.957031 455.675781 316.882812 455.636719 314.679688 L 455.636719 310.613281 C 454.421875 312.523438 452.832031 314.035156 450.863281 315.144531 C 448.898438 316.226562 446.699219 316.777344 444.46875 316.738281 C 441.761719 316.773438 439.253906 316.082031 436.941406 314.664062 C 434.671875 313.25 432.929688 311.347656 431.714844 308.960938 C 430.414062 306.378906 429.785156 303.640625 429.832031 300.746094 C 429.792969 297.828125 430.421875 295.0625 431.710938 292.445312 C 434.148438 287.5 439.101562 284.421875 444.472656 284.523438 C 448.976562 284.40625 453.222656 286.707031 455.691406 290.609375 L 456.152344 285.566406 L 460.113281 285.566406 L 460.113281 314.691406 C 460.15625 317.675781 459.449219 320.46875 457.988281 323.074219 C 456.609375 325.554688 454.671875 327.476562 452.183594 328.835938 C 449.554688 330.273438 446.742188 330.964844 443.75 330.910156 C 441.367188 330.917969 439.054688 330.519531 436.808594 329.714844 Z M 475.4375 289.484375 C 473.980469 290.214844 472.796875 291.257812 471.886719 292.617188 C 470.941406 294.027344 470.347656 295.570312 470.101562 297.25 L 489.941406 297.25 C 489.742188 295.582031 489.203125 294.027344 488.324219 292.59375 C 487.496094 291.25 486.378906 290.210938 484.976562 289.484375 C 483.511719 288.726562 481.957031 288.363281 480.3125 288.394531 C 478.597656 288.359375 476.972656 288.722656 475.4375 289.484375 M 487.824219 286.394531 C 489.992188 287.667969 491.65625 289.421875 492.808594 291.660156 C 494.035156 294.027344 494.660156 296.632812 494.65625 299.277344 L 494.65625 300.082031 C 494.652344 300.363281 494.632812 300.644531 494.597656 300.925781 L 470.085938 300.925781 C 470.242188 302.765625 470.875 304.535156 471.933594 306.078125 C 472.960938 307.550781 474.375 308.746094 476.03125 309.546875 C 476.953125 309.972656 477.914062 310.292969 478.910156 310.503906 C 479.90625 310.710938 480.910156 310.804688 481.929688 310.785156 C 482.945312 310.761719 483.945312 310.625 484.933594 310.375 C 485.917969 310.125 486.863281 309.765625 487.765625 309.296875 C 489.476562 308.433594 490.792969 307.164062 491.714844 305.488281 L 495.519531 306.976562 C 494.960938 308.148438 494.230469 309.199219 493.328125 310.128906 C 492.425781 311.0625 491.398438 311.824219 490.25 312.417969 C 488.945312 313.101562 487.582031 313.621094 486.15625 313.980469 C 484.734375 314.339844 483.285156 314.527344 481.816406 314.539062 C 480.347656 314.554688 478.894531 314.394531 477.464844 314.066406 C 476.03125 313.734375 474.660156 313.242188 473.34375 312.582031 C 470.929688 311.3125 469.035156 309.496094 467.652344 307.140625 C 466.980469 305.964844 466.46875 304.726562 466.117188 303.421875 C 465.761719 302.117188 465.578125 300.789062 465.5625 299.433594 C 465.546875 298.082031 465.699219 296.75 466.023438 295.4375 C 466.34375 294.121094 466.828125 292.871094 467.46875 291.679688 C 468.742188 289.421875 470.507812 287.667969 472.773438 286.414062 C 475.167969 285.109375 477.722656 284.480469 480.445312 284.523438 C 483.078125 284.472656 485.535156 285.097656 487.824219 286.394531 M 498.242188 285.703125 L 502.15625 285.703125 L 502.636719 289.296875 C 503.53125 287.820312 504.820312 286.613281 506.375 285.792969 C 507.992188 284.949219 509.714844 284.539062 511.539062 284.5625 C 513.851562 284.515625 516.015625 285.054688 518.035156 286.183594 C 519.859375 287.207031 521.304688 288.753906 522.15625 290.617188 C 523.132812 288.75 524.527344 287.285156 526.339844 286.21875 C 531.839844 282.933594 539.0625 284.554688 542.480469 289.847656 C 542.664062 290.132812 542.832031 290.429688 542.992188 290.726562 C 544.046875 292.757812 544.578125 295 544.539062 297.265625 L 544.539062 314.515625 L 539.96875 314.515625 L 539.96875 297.238281 C 539.996094 295.652344 539.660156 294.148438 538.960938 292.726562 C 538.3125 291.421875 537.371094 290.382812 536.136719 289.613281 C 534.871094 288.839844 533.496094 288.464844 532.011719 288.488281 C 530.460938 288.476562 529.007812 288.851562 527.65625 289.613281 C 526.359375 290.351562 525.320312 291.4375 524.652344 292.738281 C 523.914062 294.148438 523.558594 295.652344 523.585938 297.25 L 523.585938 314.539062 L 519.078125 314.539062 L 519.078125 297.234375 C 519.101562 295.652344 518.773438 294.148438 518.09375 292.722656 C 517.464844 291.425781 516.535156 290.410156 515.304688 289.667969 C 514.015625 288.898438 512.617188 288.523438 511.117188 288.542969 C 509.554688 288.523438 508.089844 288.898438 506.726562 289.667969 C 505.449219 290.402344 504.472656 291.417969 503.796875 292.726562 C 503.078125 294.144531 502.730469 295.644531 502.753906 297.234375 L 502.753906 314.539062 L 498.242188 314.539062 Z M 559.945312 289.460938 C 558.46875 290.183594 557.265625 291.230469 556.34375 292.59375 C 555.398438 294.007812 554.800781 295.554688 554.554688 297.234375 L 574.410156 297.234375 C 574.210938 295.5625 573.671875 294.007812 572.792969 292.574219 C 571.960938 291.226562 570.847656 290.1875 569.445312 289.457031 C 567.980469 288.695312 566.421875 288.332031 564.773438 288.367188 C 563.066406 288.335938 561.449219 288.699219 559.921875 289.460938 Z M 572.289062 286.363281 C 574.460938 287.640625 576.125 289.394531 577.28125 291.636719 C 578.492188 294.011719 579.125 296.617188 579.125 299.257812 L 579.125 300.066406 C 579.125 300.351562 579.105469 300.632812 579.070312 300.914062 L 554.523438 300.914062 C 554.667969 302.75 555.296875 304.523438 556.347656 306.070312 C 557.375 307.546875 558.789062 308.742188 560.445312 309.539062 C 561.367188 309.96875 562.328125 310.289062 563.324219 310.496094 C 564.320312 310.707031 565.328125 310.800781 566.347656 310.78125 C 567.363281 310.757812 568.367188 310.621094 569.351562 310.371094 C 570.339844 310.121094 571.285156 309.757812 572.1875 309.292969 C 573.898438 308.429688 575.214844 307.15625 576.140625 305.480469 L 579.945312 306.972656 C 579.386719 308.144531 578.652344 309.195312 577.75 310.128906 C 576.84375 311.058594 575.816406 311.824219 574.664062 312.417969 C 573.359375 313.101562 571.996094 313.621094 570.570312 313.980469 C 569.144531 314.339844 567.699219 314.527344 566.230469 314.539062 C 564.761719 314.554688 563.308594 314.394531 561.878906 314.0625 C 560.445312 313.734375 559.074219 313.238281 557.757812 312.582031 C 555.347656 311.300781 553.449219 309.484375 552.058594 307.132812 C 550.644531 304.695312 549.953125 302.066406 549.992188 299.246094 C 549.953125 296.558594 550.585938 294.039062 551.890625 291.691406 C 553.164062 289.429688 554.933594 287.671875 557.203125 286.417969 C 559.59375 285.113281 562.152344 284.480469 564.875 284.523438 C 567.476562 284.460938 570.046875 285.097656 572.289062 286.363281 Z M 588.117188 285.664062 L 592.207031 285.664062 L 592.628906 289.894531 C 593.699219 288.164062 595.144531 286.847656 596.96875 285.945312 C 598.828125 284.988281 600.804688 284.515625 602.898438 284.523438 C 605.230469 284.472656 607.414062 285.023438 609.441406 286.183594 C 611.320312 287.273438 612.773438 288.777344 613.796875 290.699219 C 614.859375 292.730469 615.386719 294.976562 615.351562 297.246094 L 615.351562 314.515625 L 610.773438 314.515625 L 610.773438 297.265625 C 610.800781 295.679688 610.464844 294.175781 609.765625 292.75 C 609.101562 291.421875 608.128906 290.386719 606.847656 289.636719 C 605.472656 288.847656 603.992188 288.472656 602.410156 288.507812 C 600.6875 288.496094 599.074219 288.90625 597.566406 289.738281 C 596.105469 290.554688 594.898438 291.722656 594.046875 293.125 C 593.148438 294.585938 592.6875 296.257812 592.714844 297.957031 L 592.714844 314.539062 L 588.199219 314.539062 Z M 625.382812 315.480469 C 623.871094 314.695312 622.679688 313.574219 621.8125 312.109375 C 620.945312 310.574219 620.53125 308.925781 620.570312 307.164062 L 620.570312 288.339844 L 613.554688 288.339844 L 613.554688 284.472656 L 620.570312 284.472656 L 620.570312 275.261719 L 625.371094 274.160156 L 625.371094 284.476562 L 639.628906 284.476562 L 639.628906 288.339844 L 625.355469 288.339844 L 625.355469 306.632812 C 625.289062 308.214844 625.839844 309.761719 626.90625 310.960938 C 627.949219 312.101562 629.464844 312.722656 631.03125 312.65625 C 632.675781 312.65625 634.257812 312.050781 635.460938 310.960938 C 636.808594 309.773438 637.667969 308.148438 637.871094 306.390625 L 641.789062 307.988281 C 641.601562 309.261719 641.175781 310.445312 640.511719 311.542969 C 639.847656 312.640625 638.996094 313.566406 637.957031 314.320312 C 636.898438 315.121094 635.738281 315.726562 634.476562 316.144531 C 633.21875 316.558594 631.921875 316.757812 630.597656 316.742188 C 628.753906 316.757812 627.015625 316.339844 625.382812 315.480469 M 274.917969 380.039062 L 280.363281 380.039062 L 280.363281 339.101562 L 274.917969 339.101562 Z M 285.8125 351.164062 L 289.910156 351.164062 L 290.332031 355.398438 C 291.402344 353.671875 292.847656 352.355469 294.664062 351.457031 C 296.535156 350.488281 298.519531 350.011719 300.621094 350.019531 C 302.910156 349.976562 305.167969 350.554688 307.136719 351.683594 C 309 352.769531 310.515625 354.335938 311.503906 356.203125 C 312.5625 358.234375 313.085938 360.480469 313.042969 362.746094 L 313.042969 380.039062 L 308.476562 380.039062 L 308.476562 362.746094 C 308.5 361.1875 308.148438 359.636719 307.457031 358.226562 C 306.796875 356.894531 305.824219 355.851562 304.542969 355.105469 C 303.15625 354.320312 301.671875 353.941406 300.082031 353.976562 C 298.363281 353.960938 296.75 354.371094 295.242188 355.195312 C 293.785156 356.015625 292.570312 357.1875 291.71875 358.585938 C 290.804688 360.070312 290.355469 361.683594 290.378906 363.425781 L 290.378906 380.027344 L 285.8125 380.027344 Z M 325.960938 378.734375 C 324.003906 378 322.304688 376.875 320.867188 375.359375 C 319.5625 373.972656 318.773438 372.339844 318.492188 370.460938 L 323 369.632812 C 323.113281 370.875 323.636719 372.058594 324.503906 373.019531 C 325.449219 374.066406 326.675781 374.871094 328.0625 375.355469 C 329.597656 375.921875 331.242188 376.203125 332.898438 376.179688 C 334.359375 376.199219 335.789062 375.988281 337.1875 375.550781 C 338.324219 375.203125 339.328125 374.613281 340.1875 373.792969 C 340.890625 373.113281 341.289062 372.21875 341.300781 371.285156 C 341.3125 370.820312 341.210938 370.382812 341 369.96875 C 340.789062 369.554688 340.496094 369.214844 340.113281 368.949219 C 339.207031 368.289062 338.207031 367.832031 337.117188 367.570312 C 335.589844 367.191406 334.046875 366.875 332.496094 366.617188 C 330.328125 366.277344 328.183594 365.816406 326.066406 365.238281 C 324.488281 364.796875 323.097656 364.019531 321.894531 362.90625 C 321.304688 362.3125 320.863281 361.625 320.5625 360.84375 C 320.265625 360.0625 320.140625 359.253906 320.1875 358.417969 C 320.179688 356.816406 320.667969 355.386719 321.660156 354.132812 C 322.734375 352.769531 324.074219 351.761719 325.679688 351.101562 C 327.515625 350.347656 329.429688 349.988281 331.414062 350.019531 C 333.367188 349.992188 335.308594 350.328125 337.117188 351.007812 C 338.75 351.613281 340.214844 352.542969 341.410156 353.730469 C 342.523438 354.832031 343.304688 356.1875 343.660156 357.660156 L 339.289062 358.746094 C 339.070312 357.257812 338.15625 355.933594 336.785156 355.117188 C 335.117188 354.097656 333.308594 353.617188 331.355469 353.6875 C 330.183594 353.671875 329.054688 353.886719 327.964844 354.328125 C 327.011719 354.691406 326.203125 355.257812 325.535156 356.03125 C 324.933594 356.714844 324.632812 357.507812 324.636719 358.417969 C 324.617188 358.875 324.714844 359.304688 324.925781 359.707031 C 325.136719 360.109375 325.4375 360.433594 325.820312 360.679688 C 326.453125 361.148438 327.171875 361.515625 327.945312 361.765625 C 328.546875 361.902344 330.429688 362.238281 333.582031 362.75 C 335.699219 363.113281 337.777344 363.617188 339.808594 364.261719 C 341.40625 364.78125 342.855469 365.625 344.039062 366.734375 C 345.183594 367.878906 345.789062 369.394531 345.722656 370.949219 C 345.726562 372.703125 345.167969 374.25 344.039062 375.59375 C 342.785156 377.078125 341.253906 378.164062 339.441406 378.851562 C 337.328125 379.675781 335.140625 380.070312 332.875 380.03125 C 330.484375 380.046875 328.179688 379.613281 325.960938 378.730469 M 357.148438 381.554688 C 355.675781 380.800781 354.527344 379.710938 353.695312 378.28125 C 352.863281 376.804688 352.460938 375.222656 352.492188 373.527344 L 352.492188 355.460938 L 345.726562 355.460938 L 345.726562 351.75 L 352.492188 351.75 L 352.492188 342.90625 L 357.125 341.832031 L 357.125 351.75 L 370.84375 351.75 L 370.84375 355.460938 L 357.113281 355.460938 L 357.113281 373.058594 C 357.082031 373.824219 357.195312 374.566406 357.453125 375.285156 C 357.710938 376.003906 358.09375 376.648438 358.605469 377.21875 C 359.621094 378.3125 361.085938 378.90625 362.601562 378.839844 C 364.179688 378.84375 365.703125 378.265625 366.859375 377.21875 C 368.160156 376.074219 368.984375 374.507812 369.183594 372.8125 L 372.960938 374.355469 C 372.78125 375.574219 372.371094 376.714844 371.726562 377.769531 C 371.085938 378.824219 370.265625 379.714844 369.265625 380.4375 C 368.246094 381.210938 367.128906 381.796875 365.910156 382.195312 C 364.695312 382.59375 363.445312 382.785156 362.167969 382.765625 C 360.390625 382.789062 358.71875 382.386719 357.148438 381.554688 M 376.921875 349.023438 L 382.421875 349.023438 L 382.421875 380.039062 L 376.972656 380.039062 Z M 376.820312 342.246094 C 376.050781 341.578125 375.644531 340.675781 375.6875 339.746094 C 375.652344 338.839844 376.066406 337.964844 376.820312 337.324219 C 377.679688 336.640625 378.65625 336.324219 379.75 336.375 C 380.839844 336.355469 381.902344 336.699219 382.695312 337.332031 C 383.464844 337.96875 383.882812 338.847656 383.855469 339.757812 C 383.898438 340.691406 383.476562 341.597656 382.695312 342.257812 C 381.816406 342.929688 380.828125 343.246094 379.722656 343.203125 C 378.636719 343.246094 377.667969 342.925781 376.820312 342.246094 Z M 395.277344 381.597656 C 393.804688 380.84375 392.652344 379.753906 391.824219 378.320312 C 390.992188 376.84375 390.589844 375.257812 390.621094 373.5625 L 390.621094 355.476562 L 383.855469 355.476562 L 383.855469 351.757812 L 390.621094 351.757812 L 390.621094 342.902344 L 395.25 341.828125 L 395.25 351.757812 L 409.046875 351.757812 L 409.046875 355.476562 L 395.242188 355.476562 L 395.242188 373.09375 C 395.210938 373.859375 395.324219 374.601562 395.582031 375.320312 C 395.839844 376.042969 396.222656 376.6875 396.734375 377.257812 C 397.75 378.347656 399.214844 378.945312 400.726562 378.878906 C 402.308594 378.882812 403.832031 378.304688 404.988281 377.257812 C 405.632812 376.691406 406.15625 376.027344 406.554688 375.265625 C 406.957031 374.507812 407.207031 373.699219 407.3125 372.847656 L 411.089844 374.339844 C 410.910156 375.5625 410.5 376.699219 409.859375 377.757812 C 409.222656 378.8125 408.402344 379.703125 407.40625 380.429688 C 406.382812 381.203125 405.261719 381.789062 404.042969 382.1875 C 402.828125 382.589844 401.578125 382.78125 400.296875 382.761719 C 398.523438 382.800781 396.851562 382.410156 395.277344 381.597656 M 419.746094 381.136719 C 417.84375 380.0625 416.382812 378.554688 415.355469 376.625 C 414.28125 374.554688 413.769531 372.351562 413.816406 370.019531 L 413.816406 352.746094 L 418.347656 352.746094 L 418.347656 370.019531 C 418.316406 371.582031 418.671875 373.132812 419.382812 374.535156 C 420.046875 375.8125 421.070312 376.890625 422.332031 377.648438 C 423.71875 378.445312 425.207031 378.824219 426.804688 378.78125 C 428.507812 378.789062 430.101562 378.378906 431.589844 377.550781 C 433.066406 376.734375 434.242188 375.605469 435.121094 374.164062 C 436.039062 372.6875 436.488281 371.074219 436.460938 369.332031 L 436.460938 352.746094 L 441.050781 352.746094 L 441.050781 381.625 L 436.941406 381.625 L 436.460938 377.394531 C 435.414062 379.140625 433.972656 380.457031 432.144531 381.34375 C 430.296875 382.285156 428.335938 382.761719 426.261719 382.765625 C 423.941406 382.8125 421.773438 382.269531 419.746094 381.136719 M 455.183594 381.597656 C 453.71875 380.839844 452.570312 379.75 451.742188 378.320312 C 450.910156 376.84375 450.507812 375.257812 450.539062 373.5625 L 450.539062 355.476562 L 443.773438 355.476562 L 443.773438 351.757812 L 450.539062 351.757812 L 450.539062 342.902344 L 455.167969 341.828125 L 455.167969 351.757812 L 468.9375 351.757812 L 468.9375 355.476562 L 455.15625 355.476562 L 455.15625 373.09375 C 455.125 373.859375 455.238281 374.601562 455.5 375.320312 C 455.757812 376.042969 456.140625 376.6875 456.648438 377.257812 C 457.664062 378.347656 459.128906 378.945312 460.644531 378.878906 C 462.222656 378.878906 463.75 378.300781 464.902344 377.257812 C 466.199219 376.105469 467.027344 374.539062 467.226562 372.847656 L 471.007812 374.339844 C 470.824219 375.5625 470.414062 376.703125 469.773438 377.757812 C 469.132812 378.816406 468.3125 379.707031 467.3125 380.429688 C 466.289062 381.203125 465.171875 381.792969 463.957031 382.191406 C 462.738281 382.589844 461.492188 382.78125 460.210938 382.761719 C 458.4375 382.796875 456.761719 382.410156 455.179688 381.597656 M 483.59375 355 C 482.152344 355.734375 480.929688 356.820312 480.054688 358.144531 C 479.105469 359.550781 478.511719 361.09375 478.265625 362.773438 L 498.105469 362.773438 C 497.917969 361.097656 497.378906 359.542969 496.492188 358.113281 C 495.660156 356.773438 494.546875 355.734375 493.152344 355 C 491.683594 354.238281 490.121094 353.875 488.46875 353.90625 C 486.769531 353.878906 485.15625 354.242188 483.628906 355 Z M 495.941406 351.902344 C 498.121094 353.171875 499.785156 354.929688 500.933594 357.175781 C 502.152344 359.546875 502.789062 362.15625 502.789062 364.800781 L 502.789062 365.605469 C 502.789062 365.890625 502.765625 366.175781 502.71875 366.457031 L 478.242188 366.457031 C 478.410156 368.320312 479.023438 370.023438 480.085938 371.5625 C 481.148438 373.085938 482.515625 374.242188 484.1875 375.039062 C 485.109375 375.46875 486.070312 375.785156 487.066406 375.996094 C 488.0625 376.203125 489.066406 376.296875 490.085938 376.277344 C 491.101562 376.253906 492.101562 376.117188 493.085938 375.867188 C 494.074219 375.617188 495.019531 375.253906 495.921875 374.789062 C 497.609375 373.929688 498.984375 372.605469 499.871094 370.984375 L 503.6875 372.46875 C 503.128906 373.640625 502.394531 374.691406 501.488281 375.621094 C 500.585938 376.554688 499.554688 377.316406 498.402344 377.914062 C 497.101562 378.59375 495.738281 379.117188 494.3125 379.476562 C 492.890625 379.835938 491.441406 380.023438 489.972656 380.039062 C 488.503906 380.050781 487.054688 379.894531 485.621094 379.566406 C 484.191406 379.238281 482.816406 378.746094 481.5 378.089844 C 479.089844 376.8125 477.191406 374.996094 475.804688 372.640625 C 474.386719 370.203125 473.695312 367.570312 473.734375 364.746094 C 473.691406 362.054688 474.324219 359.535156 475.632812 357.183594 C 476.902344 354.925781 478.671875 353.171875 480.941406 351.925781 C 483.332031 350.609375 485.890625 349.976562 488.621094 350.019531 C 491.230469 349.980469 493.671875 350.609375 495.941406 351.902344 Z M 514.382812 381.605469 C 515.109375 381.191406 515.714844 380.582031 516.132812 379.851562 C 516.558594 379.066406 516.769531 378.226562 516.769531 377.332031 C 516.769531 376.4375 516.558594 375.597656 516.132812 374.8125 C 515.710938 374.054688 515.128906 373.460938 514.382812 373.027344 C 513.605469 372.59375 512.773438 372.382812 511.886719 372.386719 C 510.984375 372.371094 510.140625 372.582031 509.355469 373.027344 C 508.605469 373.4375 507.992188 374.050781 507.585938 374.796875 C 507.152344 375.574219 506.933594 376.449219 506.949219 377.339844 C 506.933594 378.222656 507.15625 379.085938 507.585938 379.851562 C 508 380.589844 508.613281 381.199219 509.351562 381.609375 C 510.128906 382.03125 511.003906 382.246094 511.886719 382.230469 C 512.757812 382.242188 513.617188 382.027344 514.382812 381.605469 M 509.054688 382.070312 C 508.226562 381.601562 507.578125 380.953125 507.113281 380.121094 C 506.625 379.25 506.390625 378.320312 506.414062 377.324219 C 506.398438 376.320312 506.636719 375.386719 507.125 374.511719 C 507.589844 373.703125 508.261719 373.03125 509.070312 372.570312 C 509.941406 372.078125 510.875 371.835938 511.875 371.851562 C 512.851562 371.835938 513.8125 372.074219 514.660156 372.550781 C 515.476562 373.019531 516.144531 373.699219 516.609375 374.515625 C 517.078125 375.375 517.316406 376.34375 517.304688 377.324219 C 517.320312 378.300781 517.078125 379.261719 516.609375 380.121094 C 516.148438 380.9375 515.480469 381.609375 514.660156 382.070312 C 513.796875 382.554688 512.867188 382.785156 511.875 382.765625 C 510.890625 382.785156 509.914062 382.546875 509.054688 382.070312 "/><path style=" stroke:none;fill-rule:evenodd;fill:#000000;fill-opacity:1;" d="M 510.226562 377.007812 L 510.226562 375.214844 L 511.8125 375.214844 C 512.222656 375.203125 512.628906 375.285156 512.96875 375.460938 C 513.257812 375.613281 513.425781 375.859375 513.410156 376.117188 C 513.429688 376.375 513.265625 376.617188 512.980469 376.765625 C 512.628906 376.945312 512.253906 377.027344 511.859375 377.011719 Z M 514.582031 379.945312 L 512.777344 377.632812 C 512.980469 377.605469 513.175781 377.550781 513.363281 377.484375 C 514.097656 377.234375 514.5625 376.691406 514.535156 376.097656 C 514.535156 375.804688 514.441406 375.546875 514.25 375.324219 C 514.023438 375.066406 513.75 374.882812 513.429688 374.777344 C 513.039062 374.636719 512.636719 374.570312 512.222656 374.582031 L 509.136719 374.582031 L 509.136719 379.980469 L 510.226562 379.980469 L 510.226562 377.726562 L 511.605469 377.726562 L 513.363281 380.039062 Z M 514.582031 379.945312 "/></g></svg>