<?xml version="1.0" encoding="utf-8"?>
<!-- Generator: Adobe Illustrator 23.0.6, SVG Export Plug-In . SVG Version: 6.00 Build 0)  -->
<svg version="1.1" id="Layer_1" xmlns="http://www.w3.org/2000/svg" xmlns:xlink="http://www.w3.org/1999/xlink" x="0px" y="0px"
	 viewBox="0 0 800 272" style="enable-background:new 0 0 800 272;" xml:space="preserve">
<style type="text/css">
	.st0{fill:url(#SVGID_1_);}
	.st1{fill:none;}
	.st2{fill:url(#SVGID_2_);}
	.st3{fill:url(#SVGID_3_);}
	.st4{fill:url(#SVGID_4_);}
	.st5{fill:url(#SVGID_5_);}
	.st6{fill:#2D2C2B;}
</style>
<g>
	
		<linearGradient id="SVGID_1_" gradientUnits="userSpaceOnUse" x1="-5.4558" y1="545.64" x2="-2.0149" y2="545.64" gradientTransform="matrix(0 70.5291 70.5291 0 -38363.5078 399.4497)">
		<stop  offset="0" style="stop-color:#4ABEA7"/>
		<stop  offset="3.181820e-03" style="stop-color:#4ABEA7"/>
		<stop  offset="1" style="stop-color:#4D8ECB"/>
	</linearGradient>
	<path class="st0" d="M226.2,203.8l-2.6-4.5c0,0,3.2-2.1,3-5.2V77.9c0,0-0.2-3.8-3-5.2L123,14.6l0,0c0,0-1.4-0.8-3.2-0.7
		c-0.9,0-1.8,0.2-2.8,0.7L16.3,72.7l0,0c0,0-3.2,2.1-3,5.2v116.3c0,0,0.2,3.8,3,5.2l0,0L117,257.4l0,0c0,0,1.4,0.8,3.2,0.7
		c0.9,0,1.8-0.2,2.8-0.7l0,0l100.7-58.1L226.2,203.8l2.6,4.5l-100.7,58.1l0,0c-2.7,1.6-5.6,2.1-7.9,2.1c-4.8,0-7.9-1.9-8.4-2.1
		l-0.1,0L11.1,208.2l0,0c-8.3-5.1-8.1-13.6-8.1-14.1V77.9c0.2-9.7,7.7-13.8,8.1-14.1l0,0L111.8,5.6c2.7-1.6,5.6-2.1,7.9-2.1
		c4.8,0,7.9,1.9,8.4,2.1l0,0l100.7,58.1c8.3,5.1,8.1,13.6,8.1,14.1v116.3c-0.2,9.8-7.7,13.8-8.1,14.1L226.2,203.8z"/>
	<path class="st1" d="M91.5,90.4C91.5,90.4,91.5,90.4,91.5,90.4c-0.1,0-0.1,0-0.2,0L91.5,90.4L91.5,90.4z"/>
	
		<linearGradient id="SVGID_2_" gradientUnits="userSpaceOnUse" x1="-13.9124" y1="545.5159" x2="-10.4715" y2="545.5159" gradientTransform="matrix(0 26.924 26.924 0 -14603.6953 465.0251)">
		<stop  offset="0" style="stop-color:#4ABEA7"/>
		<stop  offset="3.181820e-03" style="stop-color:#4ABEA7"/>
		<stop  offset="1" style="stop-color:#4D8ECB"/>
	</linearGradient>
	<path class="st2" d="M84.2,106.6c4.5,7.5,23.9,41.2,35.4,61.3h18c-13.6-23.3-38.8-66.4-45.1-76.9c-0.3-0.5-0.6-0.6-1.1-0.6h-0.2
		c-34.2,0-27.2,0-61.5,0v15.7c31.4,0,22,0,53.4,0C83.7,106.1,84,106.2,84.2,106.6z"/>
	
		<linearGradient id="SVGID_3_" gradientUnits="userSpaceOnUse" x1="-13.9124" y1="544.6556" x2="-10.7313" y2="544.6556" gradientTransform="matrix(0 26.924 26.924 0 -14603.6953 465.0251)">
		<stop  offset="0" style="stop-color:#4ABEA7"/>
		<stop  offset="3.181820e-03" style="stop-color:#4ABEA7"/>
		<stop  offset="1" style="stop-color:#4D8ECB"/>
	</linearGradient>
	<path class="st3" d="M91.3,90.4H29.9v0C64.2,90.5,57.2,90.5,91.3,90.4z"/>
	
		<linearGradient id="SVGID_4_" gradientUnits="userSpaceOnUse" x1="-13.9124" y1="547.4108" x2="-10.4715" y2="547.4108" gradientTransform="matrix(0 26.924 26.924 0 -14603.6953 465.0251)">
		<stop  offset="0" style="stop-color:#4ABEA7"/>
		<stop  offset="3.181820e-03" style="stop-color:#4ABEA7"/>
		<stop  offset="1" style="stop-color:#4D8ECB"/>
	</linearGradient>
	<path class="st4" d="M123.1,173.9c3.1,5.4,5.2,9,5.3,9.2h18.1c0-0.1-2.1-3.6-5.4-9.2H123.1z"/>
	
		<linearGradient id="SVGID_5_" gradientUnits="userSpaceOnUse" x1="-13.8792" y1="547.5186" x2="-10.4382" y2="547.5186" gradientTransform="matrix(0 27 27 0 -14626.5635 464.9229)">
		<stop  offset="0" style="stop-color:#4ABEA7"/>
		<stop  offset="3.181820e-03" style="stop-color:#4ABEA7"/>
		<stop  offset="1" style="stop-color:#4D8ECB"/>
	</linearGradient>
	<path class="st5" d="M162.3,105.1h21.2c-8.9,16.7-16.4,30.8-26.5,49.5c-0.2-0.3-29.9-53.3-36-64.3c0,0-18.1-0.1-18.3,0
		c17.5,31.4,34.5,61.5,52,92.8h4.6c16.7-31,34.2-62,50.8-92.9h-47.8V105.1z"/>
	<path class="st6" d="M281.9,91v12.9h25.3v79.2h14.5v-79.2h25.3V91H281.9z M433,91v92.1h14.3h38.6v-13h-38.5V91H433z M538.4,91
		l-24.2,60.7L488.2,91h-15.9l40,91.2h4.3L554,91H538.4z M566.8,183.1h14.4V91h-14.4V183.1z M614.6,91h-14.3v92.1h14.3h41v-13h-40.8
		v-28.6h33.6v-13h-33.6v-24.6h40.8V91H614.6z M781.2,91L757,151.7l-16.4-38.5l-8.1-18.7l-7.4,19l-15.3,38.2L683.9,91H668l40,91.2
		h4.3l20.8-50.4l22.1,50.4h4.3L797,91H781.2z M381.2,122.4l11.2,28.1H370L381.2,122.4z M341.1,183.1H357l7.8-19.7h32.8l7.8,19.7
		h15.8l-40-92.9L341.1,183.1z"/>
</g>
</svg>
