<svg xmlns="http://www.w3.org/2000/svg" xmlns:xlink="http://www.w3.org/1999/xlink" width="940" zoomAndPan="magnify" viewBox="0 0 705 591.000005" height="788" preserveAspectRatio="xMidYMid meet" version="1.2"><defs><clipPath id="a0c93a503e"><path d="M 0.59375 0 L 704.402344 0 L 704.402344 590 L 0.59375 590 Z M 0.59375 0 "/></clipPath><clipPath id="de436fcde4"><path d="M 62 189.554688 L 643 189.554688 L 643 400 L 62 400 Z M 62 189.554688 "/></clipPath></defs><g id="bafc5548a1"><g clip-rule="nonzero" clip-path="url(#a0c93a503e)"><path style=" stroke:none;fill-rule:nonzero;fill:#ffffff;fill-opacity:1;" d="M 0.59375 0 L 704.40625 0 L 704.40625 590 L 0.59375 590 Z M 0.59375 0 "/><path style=" stroke:none;fill-rule:nonzero;fill:#ffffff;fill-opacity:1;" d="M 0.59375 0 L 704.40625 0 L 704.40625 590 L 0.59375 590 Z M 0.59375 0 "/></g><g clip-rule="nonzero" clip-path="url(#de436fcde4)"><path style=" stroke:none;fill-rule:nonzero;fill:#110b09;fill-opacity:1;" d="M 237 358.136719 L 199.324219 294.652344 L 237 231.167969 L 255.164062 294.652344 Z M 153.144531 351.941406 L 105.808594 304.910156 L 181.160156 304.910156 L 218.839844 368.394531 Z M 153.144531 237.167969 L 218.644531 220.714844 L 180.96875 284.199219 L 105.617188 284.199219 Z M 249.367188 189.554688 L 163.773438 211.8125 L 151.019531 233.683594 L 125.324219 233.488281 L 62.527344 294.652344 L 125.324219 355.8125 L 151.019531 355.617188 L 163.773438 377.488281 L 249.367188 399.941406 L 272.359375 316.523438 L 259.414062 294.847656 L 272.359375 273.167969 Z M 443.742188 251.296875 C 432.339844 251.296875 424.613281 256.136719 418.816406 265.039062 L 418.429688 265.039062 L 418.429688 253.621094 L 398.335938 253.621094 L 398.335938 337.617188 L 418.816406 337.617188 L 418.816406 290.007812 C 418.816406 278.585938 425.964844 270.652344 435.820312 270.652344 C 445.09375 270.652344 452.050781 276.265625 452.050781 286.136719 L 452.050781 337.8125 L 472.53125 337.8125 L 472.53125 282.84375 C 472.722656 264.457031 461.128906 251.296875 443.742188 251.296875 Z M 367.226562 302.199219 C 367.226562 313.425781 360.851562 321.167969 350.417969 321.167969 C 340.953125 321.167969 334.960938 315.75 334.960938 305.878906 L 334.960938 253.621094 L 314.480469 253.621094 L 314.480469 309.75 C 314.480469 328.132812 324.914062 340.136719 343.65625 340.136719 C 355.441406 340.136719 362.011719 335.683594 367.613281 327.941406 L 368.195312 327.941406 L 368.195312 337.8125 L 387.902344 337.8125 L 387.902344 253.621094 L 367.421875 253.621094 L 367.421875 302.199219 Z M 483.542969 253.621094 L 504.023438 253.621094 L 504.023438 337.617188 L 483.542969 337.617188 Z M 483.542969 227.492188 L 504.023438 227.492188 L 504.023438 244.328125 L 483.542969 244.328125 Z M 620.144531 253.621094 L 607.972656 291.554688 C 605.269531 299.296875 603.144531 309.941406 603.144531 309.941406 L 602.5625 309.941406 C 602.5625 309.941406 599.859375 299.296875 597.15625 291.554688 L 583.433594 253.621094 L 561.410156 253.621094 L 584.015625 313.425781 C 588.84375 326.199219 590.390625 331.617188 590.390625 336.261719 C 590.390625 343.230469 586.722656 347.683594 578.027344 347.683594 L 570.101562 347.683594 L 570.101562 365.296875 L 583.242188 365.296875 C 600.246094 365.296875 606.234375 358.523438 612.609375 339.941406 L 642.171875 253.8125 L 620.144531 253.8125 Z M 542.28125 313.039062 L 542.28125 268.523438 L 555.421875 268.523438 L 555.421875 253.8125 L 542.28125 253.8125 L 542.28125 227.492188 L 521.800781 227.492188 L 521.800781 253.621094 L 510.207031 253.621094 L 510.207031 268.328125 L 521.800781 268.328125 L 521.800781 317.683594 C 521.800781 333.554688 533.777344 337.8125 544.597656 337.8125 C 553.488281 337.8125 555.804688 337.425781 555.804688 337.425781 L 555.804688 321.167969 L 550.589844 321.167969 C 545.757812 321.359375 542.28125 319.234375 542.28125 313.039062 Z M 542.28125 313.039062 "/></g></g></svg>