<svg version="1.1" id="Layer_1" xmlns:x="ns_extend;" xmlns:i="ns_ai;" xmlns:graph="ns_graphs;" xmlns="http://www.w3.org/2000/svg" xmlns:xlink="http://www.w3.org/1999/xlink" x="0px" y="0px" viewBox="0 0 1154.9 181" style="enable-background:new 0 0 1154.9 181;" xml:space="preserve">
 <style type="text/css">
  .st0{fill:#FCB912;}
 </style>
 <metadata>
  <sfw xmlns="ns_sfw;">
   <slices>
   </slices>
   <sliceSourceBounds bottomLeftOrigin="true" height="181" width="1154.9" x="-653.9" y="-276.4">
   </sliceSourceBounds>
  </sfw>
 </metadata>
 <g>
  <g>
   <path d="M513,165.6v-43.1c0-20.4-7.3-32.3-22.8-35.1c18.1-4.8,23-20,23-39.4c0-27.4-9.9-44.5-41.8-44.5h-57.3l0,177.5h38.1v-77.2
			h9.4c9.2,0,13.5,6.3,13.5,14.8v47.2c0,7.9,1.6,13.6,2.7,15.2h38.5C515,179.5,513,173.4,513,165.6 M462.3,73.9l-10.1,0.2V34h11.5
			c8.7,0,11.6,6.4,11.6,20.4S472.1,73.9,462.3,73.9">
   </path>
   <path d="M85.5,150.8c6.8-5.7,8-12.7,8-19v-26.5h-37v36c0,5.1-4.2,9.3-9.3,9.3c-5.1,0-9-4.2-9-9.3v-102c0-5.1,3.8-9.3,9-9.3
			c5.1,0,9.3,4.2,9.3,9.3v36.2h37V37.9C93.4,17.1,79.8,0,46.8,0C12.8,0,0,17.2,0,37.9v106.5c0,20.6,16.3,36.2,37.2,36.2h11.5
			L85.5,150.8z">
   </path>
   <path d="M1103.5,165.5v-43.1c0-20.4-7.3-32.3-22.8-35.1c18.1-4.8,23-20,23-39.4c0-27.4-9.9-44.5-41.8-44.5h-57.3l0,177.5h38.2
			v-77.2h9.3c9.2,0,13.5,6.3,13.5,14.8v47.2c0,7.9,1.6,13.7,2.7,15.2h38.5C1105.6,179.4,1103.5,173.3,1103.5,165.5 M1052.8,73.8
			h-10.1v-40h11.6c8.7,0,11.6,6.4,11.6,20.4C1065.9,68.3,1062.7,73.8,1052.8,73.8">
   </path>
   <path d="M960.7,3.1h-51.3L879,180.9h38.6l3.8-31.4l27.6,0l3.8,31.4h38.6L960.7,3.1z M925.3,117.1l9.9-82.8l9.9,82.8H925.3z">
   </path>
   <polygon points="705.2,180.9 705.2,3.5 744.3,3.5 744.3,147.2 785,147.2 785,180.9 		">
   </polygon>
   <rect x="645.4" y="3.5" width="39.1" height="177.4">
   </rect>
   <polygon points="794.4,180.9 794.4,3.5 833.5,3.5 833.5,147.2 874.2,147.2 874.2,180.9 		">
   </polygon>
   <path d="M591.3,3.5h-59.6l0,177.5h38.2v-70.4h21.4c35.1,0,41-22.4,41-53.5C632.3,25.8,626.4,3.5,591.3,3.5 M581.4,79.1L569.8,79
			V34h11.6c9.9,0,11.6,6.8,11.6,23C593,73.8,591.3,79.1,581.4,79.1">
   </path>
   <polygon points="348.1,37.3 348.1,72.5 388.6,72.5 388.6,107.2 348.1,107.2 348.1,146.6 396.2,146.6 396.2,180.8 309,180.9 
			309,3.4 309,3.4 394.6,3.4 394.6,37.3 		">
   </polygon>
   <polygon points="231.5,155 231.5,38 206,38 206,3.5 298.5,3.5 298.5,38 272.8,38 272.8,180.4 261.8,180.4 		">
   </polygon>
   <polygon class="st0" points="248.1,180.6 158,105.1 64.6,180.6 		">
   </polygon>
   <path d="M183.7,3.7h-51.6L102,138.6l56-45.2l58.4,48.9L183.7,3.7z M148,84.8l10-51l9.9,51H148z">
   </path>
   <path d="M1154.9,15.9c0,8.3-6.6,15-14.9,15c-8.3,0-15-6.7-15-15c0-8.3,6.7-14.9,15-14.9C1148.3,1,1154.9,7.6,1154.9,15.9
			 M1152.1,15.9c0-6.7-5.5-12.1-12.1-12.1c-6.8,0-12.2,5.4-12.2,12.1c0,6.7,5.4,12.2,12.2,12.2C1146.7,28.1,1152.1,22.6,1152.1,15.9
			 M1138.1,24.6h-3.9V7.2h7.3c2.7,0,4.4,1.6,4.4,4.6c0,2.2-0.9,3.9-3.5,4.3v0.1c0.9,0,3.4,0.2,3.4,3.4c0,1.1,0.1,4.4,0.4,5.1h-3.9
			c-0.5-1.1-0.5-2.2-0.5-3.4c0-2,0.3-3.8-2.7-3.8h-1V24.6z M1138.1,14.9h1.8c1.6,0,2.1-1.4,2.1-2.6c0-1.6-0.8-2.3-2.1-2.3h-1.8V14.9
			z">
   </path>
  </g>
 </g>
</svg>