<?xml version="1.0" encoding="utf-8"?>
<!-- Generator: Adobe Illustrator 27.3.1, SVG Export Plug-In . SVG Version: 6.00 Build 0)  -->
<svg version="1.1" id="Logo" xmlns="http://www.w3.org/2000/svg" xmlns:xlink="http://www.w3.org/1999/xlink" x="0px" y="0px"
	 viewBox="0 0 294.06 170.78" style="enable-background:new 0 0 294.06 170.78;" xml:space="preserve">
<style type="text/css">
	.st0{fill:#255BE3;}
	.st1{fill:#FF3C28;}
</style>
<g>
	<g>
		<path class="st0" d="M3.38,115.08c0-29.8,24.4-53,56.2-53c18.4,0,35.2,8.2,44.8,20.6l-13.8,13.8c-6.8-9-18.6-15.2-30.8-15.2
			c-19,0-34.2,14.2-34.2,33.8c0,19.8,15.2,34,34.2,34c13.2,0,25-6.6,31.8-15.8l13.6,13.4c-9.2,13-26.8,21.6-45.6,21.6
			C27.78,168.28,3.38,145.08,3.38,115.08z"/>
		<path class="st0" d="M123.18,65.68h21.8v99h-21.8V65.68z"/>
		<path class="st0" d="M185.58,138.08v-54h-23.8v-18.4h24.8v-21.2l20.4-10v31.2h32.4v18.4h-32.4v50.4c0,10,5.6,14.4,16.2,14.4
			c5.4,0,10.6-1,16-3.4v18.8c-5.6,2.6-12.4,4-20,4C199.78,168.28,185.58,157.68,185.58,138.08z"/>
		<path class="st0" d="M256.58,65.68h21.8v99h-21.8V65.68z"/>
	</g>
	<path class="st1" d="M200.58,2.68c38,0,71,18.6,91.4,47.2h-25.4c-16.4-18.2-39.2-29.4-66-29.4c-26.8,0-49.6,11.2-66,29.4h-25.4
		C129.58,21.28,162.58,2.68,200.58,2.68z"/>
</g>
</svg>
