<svg version="1.2" xmlns="http://www.w3.org/2000/svg" viewBox="0 0 1521 390" width="1521" height="390">
	<title>lkq-logo-svg</title>
	<style>
		.s0 { fill: #085cf0 } 
	</style>
	<g id="LKQ_Logo_Slogan">
		<path id="Layer" fill-rule="evenodd" class="s0" d="m0 360.6v-346.8h168.6v229.2h205.8v117.6c0 0-374.4 0-374.4 0zm959.6 0h-208.3l-157.7-171.9v171.9h-168.6v-346.8h168.6v155.4l152.3-155.4h205.3l-185 165zm561 29.2h-189.5l-41.3-38.1c-25.3 13.3-73.4 22.8-120.5 22.8-157.7 0-251.4-71-251.4-190.5 0.1-115.3 103.2-184 277.3-184 172.1 0 274.3 68.7 274.3 184.5 0 10.6-0.9 21.1-2.9 31.5-2 10.4-5 20.6-9 30.4-4 9.8-9 19.2-14.8 28-5.8 8.9-12.5 17.1-19.9 24.7zm-328.9-123.8c69.9 0 106.6-27.5 106.6-79.4 0-51.9-36.1-78.8-105.1-78.8-68.9 0-104.6 27.5-104.6 80.3 0 51.4 35.7 78.1 103.1 78.1z"/>
	</g>
</svg>